<svg version="1.1" xmlns="http://www.w3.org/2000/svg" xmlns:xlink="http://www.w3.org/1999/xlink" width="478.26953125" height="288"><defs/><g><text fill="#eeeeee" stroke="none" font-family="Arial" font-size="24px" font-style="normal" font-weight="normal" text-decoration="none" x="0" y="0">UNREGISTERED</text><text fill="#eeeeee" stroke="none" font-family="Arial" font-size="24px" font-style="normal" font-weight="normal" text-decoration="none" x="0" y="30">UNREGISTERED</text><text fill="#eeeeee" stroke="none" font-family="Arial" font-size="24px" font-style="normal" font-weight="normal" text-decoration="none" x="0" y="60">UNREGISTERED</text><text fill="#eeeeee" stroke="none" font-family="Arial" font-size="24px" font-style="normal" font-weight="normal" text-decoration="none" x="0" y="90">UNREGISTERED</text><text fill="#eeeeee" stroke="none" font-family="Arial" font-size="24px" font-style="normal" font-weight="normal" text-decoration="none" x="0" y="120">UNREGISTERED</text><text fill="#eeeeee" stroke="none" font-family="Arial" font-size="24px" font-style="normal" font-weight="normal" text-decoration="none" x="0" y="150">UNREGISTERED</text><text fill="#eeeeee" stroke="none" font-family="Arial" font-size="24px" font-style="normal" font-weight="normal" text-decoration="none" x="0" y="180">UNREGISTERED</text><text fill="#eeeeee" stroke="none" font-family="Arial" font-size="24px" font-style="normal" font-weight="normal" text-decoration="none" x="0" y="210">UNREGISTERED</text><text fill="#eeeeee" stroke="none" font-family="Arial" font-size="24px" font-style="normal" font-weight="normal" text-decoration="none" x="0" y="240">UNREGISTERED</text><text fill="#eeeeee" stroke="none" font-family="Arial" font-size="24px" font-style="normal" font-weight="normal" text-decoration="none" x="0" y="270">UNREGISTERED</text><text fill="#eeeeee" stroke="none" font-family="Arial" font-size="24px" font-style="normal" font-weight="normal" text-decoration="none" x="200" y="0">UNREGISTERED</text><text fill="#eeeeee" stroke="none" font-family="Arial" font-size="24px" font-style="normal" font-weight="normal" text-decoration="none" x="200" y="30">UNREGISTERED</text><text fill="#eeeeee" stroke="none" font-family="Arial" font-size="24px" font-style="normal" font-weight="normal" text-decoration="none" x="200" y="60">UNREGISTERED</text><text fill="#eeeeee" stroke="none" font-family="Arial" font-size="24px" font-style="normal" font-weight="normal" text-decoration="none" x="200" y="90">UNREGISTERED</text><text fill="#eeeeee" stroke="none" font-family="Arial" font-size="24px" font-style="normal" font-weight="normal" text-decoration="none" x="200" y="120">UNREGISTERED</text><text fill="#eeeeee" stroke="none" font-family="Arial" font-size="24px" font-style="normal" font-weight="normal" text-decoration="none" x="200" y="150">UNREGISTERED</text><text fill="#eeeeee" stroke="none" font-family="Arial" font-size="24px" font-style="normal" font-weight="normal" text-decoration="none" x="200" y="180">UNREGISTERED</text><text fill="#eeeeee" stroke="none" font-family="Arial" font-size="24px" font-style="normal" font-weight="normal" text-decoration="none" x="200" y="210">UNREGISTERED</text><text fill="#eeeeee" stroke="none" font-family="Arial" font-size="24px" font-style="normal" font-weight="normal" text-decoration="none" x="200" y="240">UNREGISTERED</text><text fill="#eeeeee" stroke="none" font-family="Arial" font-size="24px" font-style="normal" font-weight="normal" text-decoration="none" x="200" y="270">UNREGISTERED</text><text fill="#eeeeee" stroke="none" font-family="Arial" font-size="24px" font-style="normal" font-weight="normal" text-decoration="none" x="400" y="0">UNREGISTERED</text><text fill="#eeeeee" stroke="none" font-family="Arial" font-size="24px" font-style="normal" font-weight="normal" text-decoration="none" x="400" y="30">UNREGISTERED</text><text fill="#eeeeee" stroke="none" font-family="Arial" font-size="24px" font-style="normal" font-weight="normal" text-decoration="none" x="400" y="60">UNREGISTERED</text><text fill="#eeeeee" stroke="none" font-family="Arial" font-size="24px" font-style="normal" font-weight="normal" text-decoration="none" x="400" y="90">UNREGISTERED</text><text fill="#eeeeee" stroke="none" font-family="Arial" font-size="24px" font-style="normal" font-weight="normal" text-decoration="none" x="400" y="120">UNREGISTERED</text><text fill="#eeeeee" stroke="none" font-family="Arial" font-size="24px" font-style="normal" font-weight="normal" text-decoration="none" x="400" y="150">UNREGISTERED</text><text fill="#eeeeee" stroke="none" font-family="Arial" font-size="24px" font-style="normal" font-weight="normal" text-decoration="none" x="400" y="180">UNREGISTERED</text><text fill="#eeeeee" stroke="none" font-family="Arial" font-size="24px" font-style="normal" font-weight="normal" text-decoration="none" x="400" y="210">UNREGISTERED</text><text fill="#eeeeee" stroke="none" font-family="Arial" font-size="24px" font-style="normal" font-weight="normal" text-decoration="none" x="400" y="240">UNREGISTERED</text><text fill="#eeeeee" stroke="none" font-family="Arial" font-size="24px" font-style="normal" font-weight="normal" text-decoration="none" x="400" y="270">UNREGISTERED</text><g transform="translate(-422,-206) scale(1,1)"><path fill="#C0C0C0" stroke="none" d="M 439 241 L 604 241 L 604 389 L 439 389" opacity="0.2"/></g><g transform="translate(-422,-206) scale(1,1)"><path fill="#C0C0C0" stroke="none" d="M 439 241 L 449 231 L 614 231 L 604 241" opacity="0.2"/></g><g transform="translate(-422,-206) scale(1,1)"><path fill="#C0C0C0" stroke="none" d="M 614 231 L 604 241 L 604 389 L 614 379" opacity="0.2"/></g><g transform="translate(-422,-206) scale(1,1)"><path fill="#ffffff" stroke="none" d="M 432 234 L 597 234 L 597 382 L 432 382"/></g><g transform="translate(-422,-206) scale(1,1)"><path fill="#ffffff" stroke="none" d="M 432 234 L 442 224 L 607 224 L 597 234"/></g><g transform="translate(-422,-206) scale(1,1)"><path fill="#ffffff" stroke="none" d="M 607 224 L 597 234 L 597 382 L 607 372"/></g><g transform="translate(-422,-206) scale(1,1)"><path fill="none" stroke="#000000" d="M 432 234 L 597 234 L 597 382 L 432 382 L 432 234" stroke-miterlimit="10"/></g><g transform="translate(-422,-206) scale(1,1)"><path fill="none" stroke="#000000" d="M 432 234 L 442 224 L 607 224 L 597 234 L 432 234" stroke-miterlimit="10"/></g><g transform="translate(-422,-206) scale(1,1)"><path fill="none" stroke="#000000" d="M 607 224 L 597 234 L 597 382 L 607 372 L 607 224" stroke-miterlimit="10"/></g><g transform="translate(-422,-206) scale(1,1)"><g><path fill="none" stroke="none"/><text fill="#000000" stroke="none" font-family="Arial" font-size="13px" font-style="normal" font-weight="bold" text-decoration="none" x="493.3291015625" y="252">Cliente</text></g></g><g transform="translate(-422,-206) scale(1,1)"><path fill="#C0C0C0" stroke="none" d="M 500.074072265625 279 L 527.514072265625 279 L 539.274072265625 290.76 L 539.274072265625 328 L 500.074072265625 328" opacity="0.2"/></g><g transform="translate(-422,-206) scale(1,1)"><path fill="#ffffff" stroke="none" d="M 493.074072265625 272 L 520.514072265625 272 L 532.274072265625 283.76 L 532.274072265625 321 L 493.074072265625 321"/></g><g transform="translate(-422,-206) scale(1,1)"><path fill="none" stroke="#000000" d="M 493.074072265625 272 L 520.514072265625 272 L 532.274072265625 283.76 L 532.274072265625 321 L 493.074072265625 321 L 493.074072265625 272" stroke-miterlimit="10"/></g><g transform="translate(-422,-206) scale(1,1)"><path fill="none" stroke="#000000" d="M 520.514072265625 272 L 520.514072265625 283.76 L 532.274072265625 283.76 L 520.514072265625 272" stroke-miterlimit="10"/></g><g transform="translate(-422,-206) scale(1,1)"><g><path fill="none" stroke="none"/><text fill="#000000" stroke="none" font-family="Arial" font-size="13px" font-style="normal" font-weight="bold" text-decoration="none" x="484.5" y="339">Cadastro</text></g></g><g transform="translate(-422,-206) scale(1,1)"><path fill="#C0C0C0" stroke="none" d="M 679 233 L 886.26953125 233 L 886.26953125 390 L 679 390" opacity="0.2"/></g><g transform="translate(-422,-206) scale(1,1)"><path fill="#C0C0C0" stroke="none" d="M 679 233 L 689 223 L 896.26953125 223 L 886.26953125 233" opacity="0.2"/></g><g transform="translate(-422,-206) scale(1,1)"><path fill="#C0C0C0" stroke="none" d="M 896.26953125 223 L 886.26953125 233 L 886.26953125 390 L 896.26953125 380" opacity="0.2"/></g><g transform="translate(-422,-206) scale(1,1)"><path fill="#ffffff" stroke="none" d="M 672 226 L 879.26953125 226 L 879.26953125 383 L 672 383"/></g><g transform="translate(-422,-206) scale(1,1)"><path fill="#ffffff" stroke="none" d="M 672 226 L 682 216 L 889.26953125 216 L 879.26953125 226"/></g><g transform="translate(-422,-206) scale(1,1)"><path fill="#ffffff" stroke="none" d="M 889.26953125 216 L 879.26953125 226 L 879.26953125 383 L 889.26953125 373"/></g><g transform="translate(-422,-206) scale(1,1)"><path fill="none" stroke="#000000" d="M 672 226 L 879.26953125 226 L 879.26953125 383 L 672 383 L 672 226" stroke-miterlimit="10"/></g><g transform="translate(-422,-206) scale(1,1)"><path fill="none" stroke="#000000" d="M 672 226 L 682 216 L 889.26953125 216 L 879.26953125 226 L 672 226" stroke-miterlimit="10"/></g><g transform="translate(-422,-206) scale(1,1)"><path fill="none" stroke="#000000" d="M 889.26953125 216 L 879.26953125 226 L 879.26953125 383 L 889.26953125 373 L 889.26953125 216" stroke-miterlimit="10"/></g><g transform="translate(-422,-206) scale(1,1)"><g><path fill="none" stroke="none"/><text fill="#000000" stroke="none" font-family="Arial" font-size="13px" font-style="normal" font-weight="bold" text-decoration="none" x="738.566162109375" y="244">MatchMaker</text></g></g><g transform="translate(-422,-206) scale(1,1)"><path fill="#C0C0C0" stroke="none" d="M 719 457 L 836 457 L 836 490 L 719 490" opacity="0.2"/></g><g transform="translate(-422,-206) scale(1,1)"><path fill="#C0C0C0" stroke="none" d="M 719 457 L 729 447 L 846 447 L 836 457" opacity="0.2"/></g><g transform="translate(-422,-206) scale(1,1)"><path fill="#C0C0C0" stroke="none" d="M 846 447 L 836 457 L 836 490 L 846 480" opacity="0.2"/></g><g transform="translate(-422,-206) scale(1,1)"><path fill="#ffffff" stroke="none" d="M 712 450 L 829 450 L 829 483 L 712 483"/></g><g transform="translate(-422,-206) scale(1,1)"><path fill="#ffffff" stroke="none" d="M 712 450 L 722 440 L 839 440 L 829 450"/></g><g transform="translate(-422,-206) scale(1,1)"><path fill="#ffffff" stroke="none" d="M 839 440 L 829 450 L 829 483 L 839 473"/></g><g transform="translate(-422,-206) scale(1,1)"><path fill="none" stroke="#000000" d="M 712 450 L 829 450 L 829 483 L 712 483 L 712 450" stroke-miterlimit="10"/></g><g transform="translate(-422,-206) scale(1,1)"><path fill="none" stroke="#000000" d="M 712 450 L 722 440 L 839 440 L 829 450 L 712 450" stroke-miterlimit="10"/></g><g transform="translate(-422,-206) scale(1,1)"><path fill="none" stroke="#000000" d="M 839 440 L 829 450 L 829 483 L 839 473 L 839 440" stroke-miterlimit="10"/></g><g transform="translate(-422,-206) scale(1,1)"><g><path fill="none" stroke="none"/><text fill="#000000" stroke="none" font-family="Arial" font-size="13px" font-style="normal" font-weight="bold" text-decoration="none" x="720.07275390625" y="468">Banco de Dados</text></g></g><g transform="translate(-422,-206) scale(1,1)"><path fill="#C0C0C0" stroke="none" d="M 763.350439453125 287 L 790.790439453125 287 L 802.550439453125 298.76 L 802.550439453125 336 L 763.350439453125 336" opacity="0.2"/></g><g transform="translate(-422,-206) scale(1,1)"><path fill="#ffffff" stroke="none" d="M 756.350439453125 280 L 783.790439453125 280 L 795.550439453125 291.76 L 795.550439453125 329 L 756.350439453125 329"/></g><g transform="translate(-422,-206) scale(1,1)"><path fill="none" stroke="#000000" d="M 756.350439453125 280 L 783.790439453125 280 L 795.550439453125 291.76 L 795.550439453125 329 L 756.350439453125 329 L 756.350439453125 280" stroke-miterlimit="10"/></g><g transform="translate(-422,-206) scale(1,1)"><path fill="none" stroke="#000000" d="M 783.790439453125 280 L 783.790439453125 291.76 L 795.550439453125 291.76 L 783.790439453125 280" stroke-miterlimit="10"/></g><g transform="translate(-422,-206) scale(1,1)"><g><path fill="none" stroke="none"/><text fill="#000000" stroke="none" font-family="Arial" font-size="13px" font-style="normal" font-weight="bold" text-decoration="none" x="748.5" y="347">Software</text></g></g><g transform="translate(-422,-206) scale(1,1)"><path fill="none" stroke="#000000" d="M 778 385 L 777 439" stroke-miterlimit="10"/></g><g transform="translate(-422,-206) scale(1,1)"><path fill="none" stroke="#000000" d="M 609 302 L 671 301" stroke-miterlimit="10"/></g></g></svg>