<svg version="1.1" xmlns="http://www.w3.org/2000/svg" xmlns:xlink="http://www.w3.org/1999/xlink" width="1106.5908203125" height="494"><defs/><g><text fill="#eeeeee" stroke="none" font-family="Arial" font-size="24px" font-style="normal" font-weight="normal" text-decoration="none" x="0" y="0">UNREGISTERED</text><text fill="#eeeeee" stroke="none" font-family="Arial" font-size="24px" font-style="normal" font-weight="normal" text-decoration="none" x="0" y="30">UNREGISTERED</text><text fill="#eeeeee" stroke="none" font-family="Arial" font-size="24px" font-style="normal" font-weight="normal" text-decoration="none" x="0" y="60">UNREGISTERED</text><text fill="#eeeeee" stroke="none" font-family="Arial" font-size="24px" font-style="normal" font-weight="normal" text-decoration="none" x="0" y="90">UNREGISTERED</text><text fill="#eeeeee" stroke="none" font-family="Arial" font-size="24px" font-style="normal" font-weight="normal" text-decoration="none" x="0" y="120">UNREGISTERED</text><text fill="#eeeeee" stroke="none" font-family="Arial" font-size="24px" font-style="normal" font-weight="normal" text-decoration="none" x="0" y="150">UNREGISTERED</text><text fill="#eeeeee" stroke="none" font-family="Arial" font-size="24px" font-style="normal" font-weight="normal" text-decoration="none" x="0" y="180">UNREGISTERED</text><text fill="#eeeeee" stroke="none" font-family="Arial" font-size="24px" font-style="normal" font-weight="normal" text-decoration="none" x="0" y="210">UNREGISTERED</text><text fill="#eeeeee" stroke="none" font-family="Arial" font-size="24px" font-style="normal" font-weight="normal" text-decoration="none" x="0" y="240">UNREGISTERED</text><text fill="#eeeeee" stroke="none" font-family="Arial" font-size="24px" font-style="normal" font-weight="normal" text-decoration="none" x="0" y="270">UNREGISTERED</text><text fill="#eeeeee" stroke="none" font-family="Arial" font-size="24px" font-style="normal" font-weight="normal" text-decoration="none" x="0" y="300">UNREGISTERED</text><text fill="#eeeeee" stroke="none" font-family="Arial" font-size="24px" font-style="normal" font-weight="normal" text-decoration="none" x="0" y="330">UNREGISTERED</text><text fill="#eeeeee" stroke="none" font-family="Arial" font-size="24px" font-style="normal" font-weight="normal" text-decoration="none" x="0" y="360">UNREGISTERED</text><text fill="#eeeeee" stroke="none" font-family="Arial" font-size="24px" font-style="normal" font-weight="normal" text-decoration="none" x="0" y="390">UNREGISTERED</text><text fill="#eeeeee" stroke="none" font-family="Arial" font-size="24px" font-style="normal" font-weight="normal" text-decoration="none" x="0" y="420">UNREGISTERED</text><text fill="#eeeeee" stroke="none" font-family="Arial" font-size="24px" font-style="normal" font-weight="normal" text-decoration="none" x="0" y="450">UNREGISTERED</text><text fill="#eeeeee" stroke="none" font-family="Arial" font-size="24px" font-style="normal" font-weight="normal" text-decoration="none" x="0" y="480">UNREGISTERED</text><text fill="#eeeeee" stroke="none" font-family="Arial" font-size="24px" font-style="normal" font-weight="normal" text-decoration="none" x="200" y="0">UNREGISTERED</text><text fill="#eeeeee" stroke="none" font-family="Arial" font-size="24px" font-style="normal" font-weight="normal" text-decoration="none" x="200" y="30">UNREGISTERED</text><text fill="#eeeeee" stroke="none" font-family="Arial" font-size="24px" font-style="normal" font-weight="normal" text-decoration="none" x="200" y="60">UNREGISTERED</text><text fill="#eeeeee" stroke="none" font-family="Arial" font-size="24px" font-style="normal" font-weight="normal" text-decoration="none" x="200" y="90">UNREGISTERED</text><text fill="#eeeeee" stroke="none" font-family="Arial" font-size="24px" font-style="normal" font-weight="normal" text-decoration="none" x="200" y="120">UNREGISTERED</text><text fill="#eeeeee" stroke="none" font-family="Arial" font-size="24px" font-style="normal" font-weight="normal" text-decoration="none" x="200" y="150">UNREGISTERED</text><text fill="#eeeeee" stroke="none" font-family="Arial" font-size="24px" font-style="normal" font-weight="normal" text-decoration="none" x="200" y="180">UNREGISTERED</text><text fill="#eeeeee" stroke="none" font-family="Arial" font-size="24px" font-style="normal" font-weight="normal" text-decoration="none" x="200" y="210">UNREGISTERED</text><text fill="#eeeeee" stroke="none" font-family="Arial" font-size="24px" font-style="normal" font-weight="normal" text-decoration="none" x="200" y="240">UNREGISTERED</text><text fill="#eeeeee" stroke="none" font-family="Arial" font-size="24px" font-style="normal" font-weight="normal" text-decoration="none" x="200" y="270">UNREGISTERED</text><text fill="#eeeeee" stroke="none" font-family="Arial" font-size="24px" font-style="normal" font-weight="normal" text-decoration="none" x="200" y="300">UNREGISTERED</text><text fill="#eeeeee" stroke="none" font-family="Arial" font-size="24px" font-style="normal" font-weight="normal" text-decoration="none" x="200" y="330">UNREGISTERED</text><text fill="#eeeeee" stroke="none" font-family="Arial" font-size="24px" font-style="normal" font-weight="normal" text-decoration="none" x="200" y="360">UNREGISTERED</text><text fill="#eeeeee" stroke="none" font-family="Arial" font-size="24px" font-style="normal" font-weight="normal" text-decoration="none" x="200" y="390">UNREGISTERED</text><text fill="#eeeeee" stroke="none" font-family="Arial" font-size="24px" font-style="normal" font-weight="normal" text-decoration="none" x="200" y="420">UNREGISTERED</text><text fill="#eeeeee" stroke="none" font-family="Arial" font-size="24px" font-style="normal" font-weight="normal" text-decoration="none" x="200" y="450">UNREGISTERED</text><text fill="#eeeeee" stroke="none" font-family="Arial" font-size="24px" font-style="normal" font-weight="normal" text-decoration="none" x="200" y="480">UNREGISTERED</text><text fill="#eeeeee" stroke="none" font-family="Arial" font-size="24px" font-style="normal" font-weight="normal" text-decoration="none" x="400" y="0">UNREGISTERED</text><text fill="#eeeeee" stroke="none" font-family="Arial" font-size="24px" font-style="normal" font-weight="normal" text-decoration="none" x="400" y="30">UNREGISTERED</text><text fill="#eeeeee" stroke="none" font-family="Arial" font-size="24px" font-style="normal" font-weight="normal" text-decoration="none" x="400" y="60">UNREGISTERED</text><text fill="#eeeeee" stroke="none" font-family="Arial" font-size="24px" font-style="normal" font-weight="normal" text-decoration="none" x="400" y="90">UNREGISTERED</text><text fill="#eeeeee" stroke="none" font-family="Arial" font-size="24px" font-style="normal" font-weight="normal" text-decoration="none" x="400" y="120">UNREGISTERED</text><text fill="#eeeeee" stroke="none" font-family="Arial" font-size="24px" font-style="normal" font-weight="normal" text-decoration="none" x="400" y="150">UNREGISTERED</text><text fill="#eeeeee" stroke="none" font-family="Arial" font-size="24px" font-style="normal" font-weight="normal" text-decoration="none" x="400" y="180">UNREGISTERED</text><text fill="#eeeeee" stroke="none" font-family="Arial" font-size="24px" font-style="normal" font-weight="normal" text-decoration="none" x="400" y="210">UNREGISTERED</text><text fill="#eeeeee" stroke="none" font-family="Arial" font-size="24px" font-style="normal" font-weight="normal" text-decoration="none" x="400" y="240">UNREGISTERED</text><text fill="#eeeeee" stroke="none" font-family="Arial" font-size="24px" font-style="normal" font-weight="normal" text-decoration="none" x="400" y="270">UNREGISTERED</text><text fill="#eeeeee" stroke="none" font-family="Arial" font-size="24px" font-style="normal" font-weight="normal" text-decoration="none" x="400" y="300">UNREGISTERED</text><text fill="#eeeeee" stroke="none" font-family="Arial" font-size="24px" font-style="normal" font-weight="normal" text-decoration="none" x="400" y="330">UNREGISTERED</text><text fill="#eeeeee" stroke="none" font-family="Arial" font-size="24px" font-style="normal" font-weight="normal" text-decoration="none" x="400" y="360">UNREGISTERED</text><text fill="#eeeeee" stroke="none" font-family="Arial" font-size="24px" font-style="normal" font-weight="normal" text-decoration="none" x="400" y="390">UNREGISTERED</text><text fill="#eeeeee" stroke="none" font-family="Arial" font-size="24px" font-style="normal" font-weight="normal" text-decoration="none" x="400" y="420">UNREGISTERED</text><text fill="#eeeeee" stroke="none" font-family="Arial" font-size="24px" font-style="normal" font-weight="normal" text-decoration="none" x="400" y="450">UNREGISTERED</text><text fill="#eeeeee" stroke="none" font-family="Arial" font-size="24px" font-style="normal" font-weight="normal" text-decoration="none" x="400" y="480">UNREGISTERED</text><text fill="#eeeeee" stroke="none" font-family="Arial" font-size="24px" font-style="normal" font-weight="normal" text-decoration="none" x="600" y="0">UNREGISTERED</text><text fill="#eeeeee" stroke="none" font-family="Arial" font-size="24px" font-style="normal" font-weight="normal" text-decoration="none" x="600" y="30">UNREGISTERED</text><text fill="#eeeeee" stroke="none" font-family="Arial" font-size="24px" font-style="normal" font-weight="normal" text-decoration="none" x="600" y="60">UNREGISTERED</text><text fill="#eeeeee" stroke="none" font-family="Arial" font-size="24px" font-style="normal" font-weight="normal" text-decoration="none" x="600" y="90">UNREGISTERED</text><text fill="#eeeeee" stroke="none" font-family="Arial" font-size="24px" font-style="normal" font-weight="normal" text-decoration="none" x="600" y="120">UNREGISTERED</text><text fill="#eeeeee" stroke="none" font-family="Arial" font-size="24px" font-style="normal" font-weight="normal" text-decoration="none" x="600" y="150">UNREGISTERED</text><text fill="#eeeeee" stroke="none" font-family="Arial" font-size="24px" font-style="normal" font-weight="normal" text-decoration="none" x="600" y="180">UNREGISTERED</text><text fill="#eeeeee" stroke="none" font-family="Arial" font-size="24px" font-style="normal" font-weight="normal" text-decoration="none" x="600" y="210">UNREGISTERED</text><text fill="#eeeeee" stroke="none" font-family="Arial" font-size="24px" font-style="normal" font-weight="normal" text-decoration="none" x="600" y="240">UNREGISTERED</text><text fill="#eeeeee" stroke="none" font-family="Arial" font-size="24px" font-style="normal" font-weight="normal" text-decoration="none" x="600" y="270">UNREGISTERED</text><text fill="#eeeeee" stroke="none" font-family="Arial" font-size="24px" font-style="normal" font-weight="normal" text-decoration="none" x="600" y="300">UNREGISTERED</text><text fill="#eeeeee" stroke="none" font-family="Arial" font-size="24px" font-style="normal" font-weight="normal" text-decoration="none" x="600" y="330">UNREGISTERED</text><text fill="#eeeeee" stroke="none" font-family="Arial" font-size="24px" font-style="normal" font-weight="normal" text-decoration="none" x="600" y="360">UNREGISTERED</text><text fill="#eeeeee" stroke="none" font-family="Arial" font-size="24px" font-style="normal" font-weight="normal" text-decoration="none" x="600" y="390">UNREGISTERED</text><text fill="#eeeeee" stroke="none" font-family="Arial" font-size="24px" font-style="normal" font-weight="normal" text-decoration="none" x="600" y="420">UNREGISTERED</text><text fill="#eeeeee" stroke="none" font-family="Arial" font-size="24px" font-style="normal" font-weight="normal" text-decoration="none" x="600" y="450">UNREGISTERED</text><text fill="#eeeeee" stroke="none" font-family="Arial" font-size="24px" font-style="normal" font-weight="normal" text-decoration="none" x="600" y="480">UNREGISTERED</text><text fill="#eeeeee" stroke="none" font-family="Arial" font-size="24px" font-style="normal" font-weight="normal" text-decoration="none" x="800" y="0">UNREGISTERED</text><text fill="#eeeeee" stroke="none" font-family="Arial" font-size="24px" font-style="normal" font-weight="normal" text-decoration="none" x="800" y="30">UNREGISTERED</text><text fill="#eeeeee" stroke="none" font-family="Arial" font-size="24px" font-style="normal" font-weight="normal" text-decoration="none" x="800" y="60">UNREGISTERED</text><text fill="#eeeeee" stroke="none" font-family="Arial" font-size="24px" font-style="normal" font-weight="normal" text-decoration="none" x="800" y="90">UNREGISTERED</text><text fill="#eeeeee" stroke="none" font-family="Arial" font-size="24px" font-style="normal" font-weight="normal" text-decoration="none" x="800" y="120">UNREGISTERED</text><text fill="#eeeeee" stroke="none" font-family="Arial" font-size="24px" font-style="normal" font-weight="normal" text-decoration="none" x="800" y="150">UNREGISTERED</text><text fill="#eeeeee" stroke="none" font-family="Arial" font-size="24px" font-style="normal" font-weight="normal" text-decoration="none" x="800" y="180">UNREGISTERED</text><text fill="#eeeeee" stroke="none" font-family="Arial" font-size="24px" font-style="normal" font-weight="normal" text-decoration="none" x="800" y="210">UNREGISTERED</text><text fill="#eeeeee" stroke="none" font-family="Arial" font-size="24px" font-style="normal" font-weight="normal" text-decoration="none" x="800" y="240">UNREGISTERED</text><text fill="#eeeeee" stroke="none" font-family="Arial" font-size="24px" font-style="normal" font-weight="normal" text-decoration="none" x="800" y="270">UNREGISTERED</text><text fill="#eeeeee" stroke="none" font-family="Arial" font-size="24px" font-style="normal" font-weight="normal" text-decoration="none" x="800" y="300">UNREGISTERED</text><text fill="#eeeeee" stroke="none" font-family="Arial" font-size="24px" font-style="normal" font-weight="normal" text-decoration="none" x="800" y="330">UNREGISTERED</text><text fill="#eeeeee" stroke="none" font-family="Arial" font-size="24px" font-style="normal" font-weight="normal" text-decoration="none" x="800" y="360">UNREGISTERED</text><text fill="#eeeeee" stroke="none" font-family="Arial" font-size="24px" font-style="normal" font-weight="normal" text-decoration="none" x="800" y="390">UNREGISTERED</text><text fill="#eeeeee" stroke="none" font-family="Arial" font-size="24px" font-style="normal" font-weight="normal" text-decoration="none" x="800" y="420">UNREGISTERED</text><text fill="#eeeeee" stroke="none" font-family="Arial" font-size="24px" font-style="normal" font-weight="normal" text-decoration="none" x="800" y="450">UNREGISTERED</text><text fill="#eeeeee" stroke="none" font-family="Arial" font-size="24px" font-style="normal" font-weight="normal" text-decoration="none" x="800" y="480">UNREGISTERED</text><text fill="#eeeeee" stroke="none" font-family="Arial" font-size="24px" font-style="normal" font-weight="normal" text-decoration="none" x="1000" y="0">UNREGISTERED</text><text fill="#eeeeee" stroke="none" font-family="Arial" font-size="24px" font-style="normal" font-weight="normal" text-decoration="none" x="1000" y="30">UNREGISTERED</text><text fill="#eeeeee" stroke="none" font-family="Arial" font-size="24px" font-style="normal" font-weight="normal" text-decoration="none" x="1000" y="60">UNREGISTERED</text><text fill="#eeeeee" stroke="none" font-family="Arial" font-size="24px" font-style="normal" font-weight="normal" text-decoration="none" x="1000" y="90">UNREGISTERED</text><text fill="#eeeeee" stroke="none" font-family="Arial" font-size="24px" font-style="normal" font-weight="normal" text-decoration="none" x="1000" y="120">UNREGISTERED</text><text fill="#eeeeee" stroke="none" font-family="Arial" font-size="24px" font-style="normal" font-weight="normal" text-decoration="none" x="1000" y="150">UNREGISTERED</text><text fill="#eeeeee" stroke="none" font-family="Arial" font-size="24px" font-style="normal" font-weight="normal" text-decoration="none" x="1000" y="180">UNREGISTERED</text><text fill="#eeeeee" stroke="none" font-family="Arial" font-size="24px" font-style="normal" font-weight="normal" text-decoration="none" x="1000" y="210">UNREGISTERED</text><text fill="#eeeeee" stroke="none" font-family="Arial" font-size="24px" font-style="normal" font-weight="normal" text-decoration="none" x="1000" y="240">UNREGISTERED</text><text fill="#eeeeee" stroke="none" font-family="Arial" font-size="24px" font-style="normal" font-weight="normal" text-decoration="none" x="1000" y="270">UNREGISTERED</text><text fill="#eeeeee" stroke="none" font-family="Arial" font-size="24px" font-style="normal" font-weight="normal" text-decoration="none" x="1000" y="300">UNREGISTERED</text><text fill="#eeeeee" stroke="none" font-family="Arial" font-size="24px" font-style="normal" font-weight="normal" text-decoration="none" x="1000" y="330">UNREGISTERED</text><text fill="#eeeeee" stroke="none" font-family="Arial" font-size="24px" font-style="normal" font-weight="normal" text-decoration="none" x="1000" y="360">UNREGISTERED</text><text fill="#eeeeee" stroke="none" font-family="Arial" font-size="24px" font-style="normal" font-weight="normal" text-decoration="none" x="1000" y="390">UNREGISTERED</text><text fill="#eeeeee" stroke="none" font-family="Arial" font-size="24px" font-style="normal" font-weight="normal" text-decoration="none" x="1000" y="420">UNREGISTERED</text><text fill="#eeeeee" stroke="none" font-family="Arial" font-size="24px" font-style="normal" font-weight="normal" text-decoration="none" x="1000" y="450">UNREGISTERED</text><text fill="#eeeeee" stroke="none" font-family="Arial" font-size="24px" font-style="normal" font-weight="normal" text-decoration="none" x="1000" y="480">UNREGISTERED</text><g transform="translate(-46,-150) scale(1,1)"><path fill="#ffffff" stroke="none" d="M 1058.6161374289773 249.68 C 1058.6161374289773 244.886167936 1062.5019797539228 241 1067.29541015625 241 C 1072.0888405585772 241 1075.9746828835227 244.886167936 1075.9746828835227 249.68 C 1075.9746828835227 254.47383206400002 1072.0888405585772 258.36 1067.29541015625 258.36 C 1062.5019797539228 258.36 1058.6161374289773 254.47383206400002 1058.6161374289773 249.68 Z"/></g><g transform="translate(-46,-150) scale(1,1)"><path fill="none" stroke="#000000" d="M 1058.6161374289773 249.68 C 1058.6161374289773 244.886167936 1062.5019797539228 241 1067.29541015625 241 C 1072.0888405585772 241 1075.9746828835227 244.886167936 1075.9746828835227 249.68 C 1075.9746828835227 254.47383206400002 1072.0888405585772 258.36 1067.29541015625 258.36 C 1062.5019797539228 258.36 1058.6161374289773 254.47383206400002 1058.6161374289773 249.68 Z" stroke-miterlimit="10"/></g><g transform="translate(-46,-150) scale(1,1)"><path fill="none" stroke="#000000" d="M 1067.29541015625 258.36 L 1067.29541015625 275.64" stroke-miterlimit="10"/></g><g transform="translate(-46,-150) scale(1,1)"><path fill="none" stroke="#000000" d="M 1058.1055919744317 264.84 L 1076.4852283380683 264.84" stroke-miterlimit="10"/></g><g transform="translate(-46,-150) scale(1,1)"><path fill="none" stroke="#000000" d="M 1067.29541015625 275.64 L 1054.5317737926136 293" stroke-miterlimit="10"/></g><g transform="translate(-46,-150) scale(1,1)"><path fill="none" stroke="#000000" d="M 1067.29541015625 275.64 L 1080.0590465198864 293" stroke-miterlimit="10"/></g><g transform="translate(-46,-150) scale(1,1)"><g><path fill="none" stroke="none"/><text fill="#000000" stroke="none" font-family="Arial" font-size="13px" font-style="normal" font-weight="bold" text-decoration="none" x="996.5" y="312">Proprietário da Quadra</text></g></g><g transform="translate(-46,-150) scale(1,1)"><path fill="#ffffff" stroke="none" d="M 73.49162571022727 313.68 C 73.49162571022727 308.886167936 77.37746803517273 305 82.1708984375 305 C 86.96432883982727 305 90.85017116477273 308.886167936 90.85017116477273 313.68 C 90.85017116477273 318.473832064 86.96432883982727 322.36 82.1708984375 322.36 C 77.37746803517273 322.36 73.49162571022727 318.473832064 73.49162571022727 313.68 Z"/></g><g transform="translate(-46,-150) scale(1,1)"><path fill="none" stroke="#000000" d="M 73.49162571022727 313.68 C 73.49162571022727 308.886167936 77.37746803517273 305 82.1708984375 305 C 86.96432883982727 305 90.85017116477273 308.886167936 90.85017116477273 313.68 C 90.85017116477273 318.473832064 86.96432883982727 322.36 82.1708984375 322.36 C 77.37746803517273 322.36 73.49162571022727 318.473832064 73.49162571022727 313.68 Z" stroke-miterlimit="10"/></g><g transform="translate(-46,-150) scale(1,1)"><path fill="none" stroke="#000000" d="M 82.1708984375 322.36 L 82.1708984375 339.64" stroke-miterlimit="10"/></g><g transform="translate(-46,-150) scale(1,1)"><path fill="none" stroke="#000000" d="M 72.98108025568182 328.84 L 91.36071661931818 328.84" stroke-miterlimit="10"/></g><g transform="translate(-46,-150) scale(1,1)"><path fill="none" stroke="#000000" d="M 82.1708984375 339.64 L 69.40726207386363 357" stroke-miterlimit="10"/></g><g transform="translate(-46,-150) scale(1,1)"><path fill="none" stroke="#000000" d="M 82.1708984375 339.64 L 94.93453480113637 357" stroke-miterlimit="10"/></g><g transform="translate(-46,-150) scale(1,1)"><g><path fill="none" stroke="none"/><text fill="#000000" stroke="none" font-family="Arial" font-size="13px" font-style="normal" font-weight="bold" text-decoration="none" x="60.5" y="376">Cliente</text></g></g><g transform="translate(-46,-150) scale(1,1)"><path fill="#C0C0C0" stroke="none" d="M 439 184 C 439 174.6111584 492.2781088 167 558 167 C 623.7218912 167 677 174.6111584 677 184 C 677 193.3888416 623.7218912 201 558 201 C 492.2781088 201 439 193.3888416 439 184 Z" opacity="0.2"/></g><g transform="translate(-46,-150) scale(1,1)"><path fill="#ffffff" stroke="none" d="M 432 177 C 432 167.6111584 485.2781088 160 551 160 C 616.7218912 160 670 167.6111584 670 177 C 670 186.3888416 616.7218912 194 551 194 C 485.2781088 194 432 186.3888416 432 177 Z"/></g><g transform="translate(-46,-150) scale(1,1)"><path fill="none" stroke="#000000" d="M 432 177 C 432 167.6111584 485.2781088 160 551 160 C 616.7218912 160 670 167.6111584 670 177 C 670 186.3888416 616.7218912 194 551 194 C 485.2781088 194 432 186.3888416 432 177 Z" stroke-miterlimit="10"/></g><g transform="translate(-46,-150) scale(1,1)"><g><path fill="none" stroke="none"/><text fill="#000000" stroke="none" font-family="Arial" font-size="13px" font-style="normal" font-weight="bold" text-decoration="none" x="471.171875" y="182.5">Contratar Planos Mensais</text></g></g><g transform="translate(-46,-150) scale(1,1)"><path fill="#C0C0C0" stroke="none" d="M 487 264 C 487 254.6111584 534.2339536 247 592.5 247 C 650.7660464 247 698 254.6111584 698 264 C 698 273.3888416 650.7660464 281 592.5 281 C 534.2339536 281 487 273.3888416 487 264 Z" opacity="0.2"/></g><g transform="translate(-46,-150) scale(1,1)"><path fill="#ffffff" stroke="none" d="M 480 257 C 480 247.6111584 527.2339536 240 585.5 240 C 643.7660464 240 691 247.6111584 691 257 C 691 266.3888416 643.7660464 274 585.5 274 C 527.2339536 274 480 266.3888416 480 257 Z"/></g><g transform="translate(-46,-150) scale(1,1)"><path fill="none" stroke="#000000" d="M 480 257 C 480 247.6111584 527.2339536 240 585.5 240 C 643.7660464 240 691 247.6111584 691 257 C 691 266.3888416 643.7660464 274 585.5 274 C 527.2339536 274 480 266.3888416 480 257 Z" stroke-miterlimit="10"/></g><g transform="translate(-46,-150) scale(1,1)"><g><path fill="none" stroke="none"/><text fill="#000000" stroke="none" font-family="Arial" font-size="13px" font-style="normal" font-weight="bold" text-decoration="none" x="515.42822265625" y="262.5">Realizar Agendamento</text></g></g><g transform="translate(-46,-150) scale(1,1)"><path fill="none" stroke="#000000" d="M 109 338 L 480 275" stroke-miterlimit="10"/></g><g transform="translate(-46,-150) scale(1,1)"><path fill="none" stroke="#000000" d="M 470.6854905478761 280.85148815826324 L 480 275 L 469.27602024623627 272.5512741597177" stroke-miterlimit="10"/></g><g transform="translate(-46,-150) scale(1,1)"><path fill="none" stroke="#000000" d="M 109 333 L 500 195" stroke-miterlimit="10"/></g><g transform="translate(-46,-150) scale(1,1)"><path fill="none" stroke="#000000" d="M 491.8177080410799 202.351877195587 L 500 195 L 489.01568365074917 194.4128080896498" stroke-miterlimit="10"/></g><g transform="translate(-46,-150) scale(1,1)"><path fill="#C0C0C0" stroke="none" d="M 455 344 C 455 334.6111584 505.5918176 327 568 327 C 630.4081824 327 681 334.6111584 681 344 C 681 353.3888416 630.4081824 361 568 361 C 505.5918176 361 455 353.3888416 455 344 Z" opacity="0.2"/></g><g transform="translate(-46,-150) scale(1,1)"><path fill="#ffffff" stroke="none" d="M 448 337 C 448 327.6111584 498.5918176 320 561 320 C 623.4081824 320 674 327.6111584 674 337 C 674 346.3888416 623.4081824 354 561 354 C 498.5918176 354 448 346.3888416 448 337 Z"/></g><g transform="translate(-46,-150) scale(1,1)"><path fill="none" stroke="#000000" d="M 448 337 C 448 327.6111584 498.5918176 320 561 320 C 623.4081824 320 674 327.6111584 674 337 C 674 346.3888416 623.4081824 354 561 354 C 498.5918176 354 448 346.3888416 448 337 Z" stroke-miterlimit="10"/></g><g transform="translate(-46,-150) scale(1,1)"><g><path fill="none" stroke="none"/><text fill="#000000" stroke="none" font-family="Arial" font-size="13px" font-style="normal" font-weight="bold" text-decoration="none" x="485.6279296875" y="342.5">Visualizar Agendamento</text></g></g><g transform="translate(-46,-150) scale(1,1)"><path fill="none" stroke="#000000" d="M 109 343 L 447 338" stroke-miterlimit="10"/></g><g transform="translate(-46,-150) scale(1,1)"><path fill="none" stroke="#000000" d="M 436.90070106880285 342.3593762281225 L 447 338 L 436.77617274787156 333.9412617331693" stroke-miterlimit="10"/></g><g transform="translate(-46,-150) scale(1,1)"><path fill="#C0C0C0" stroke="none" d="M 479 400 C 479 390.6111584 527.8009568 383 588 383 C 648.1990432 383 697 390.6111584 697 400 C 697 409.3888416 648.1990432 417 588 417 C 527.8009568 417 479 409.3888416 479 400 Z" opacity="0.2"/></g><g transform="translate(-46,-150) scale(1,1)"><path fill="#ffffff" stroke="none" d="M 472 393 C 472 383.6111584 520.8009568 376 581 376 C 641.1990432 376 690 383.6111584 690 393 C 690 402.3888416 641.1990432 410 581 410 C 520.8009568 410 472 402.3888416 472 393 Z"/></g><g transform="translate(-46,-150) scale(1,1)"><path fill="none" stroke="#000000" d="M 472 393 C 472 383.6111584 520.8009568 376 581 376 C 641.1990432 376 690 383.6111584 690 393 C 690 402.3888416 641.1990432 410 581 410 C 520.8009568 410 472 402.3888416 472 393 Z" stroke-miterlimit="10"/></g><g transform="translate(-46,-150) scale(1,1)"><g><path fill="none" stroke="none"/><text fill="#000000" stroke="none" font-family="Arial" font-size="13px" font-style="normal" font-weight="bold" text-decoration="none" x="508.398681640625" y="398.5">Cancelar Agendamento</text></g></g><g transform="translate(-46,-150) scale(1,1)"><path fill="none" stroke="#000000" d="M 109 346 L 471 382" stroke-miterlimit="10"/></g><g transform="translate(-46,-150) scale(1,1)"><path fill="none" stroke="#000000" d="M 460.47063765347434 385.18316329703134 L 471 382 L 461.3037801302464 376.8054528361564" stroke-miterlimit="10"/></g><g transform="translate(-46,-150) scale(1,1)"><path fill="#C0C0C0" stroke="none" d="M 511 464 C 511 454.6111584 548.6080768 447 595 447 C 641.3919232 447 679 454.6111584 679 464 C 679 473.3888416 641.3919232 481 595 481 C 548.6080768 481 511 473.3888416 511 464 Z" opacity="0.2"/></g><g transform="translate(-46,-150) scale(1,1)"><path fill="#ffffff" stroke="none" d="M 504 457 C 504 447.6111584 541.6080768 440 588 440 C 634.3919232 440 672 447.6111584 672 457 C 672 466.3888416 634.3919232 474 588 474 C 541.6080768 474 504 466.3888416 504 457 Z"/></g><g transform="translate(-46,-150) scale(1,1)"><path fill="none" stroke="#000000" d="M 504 457 C 504 447.6111584 541.6080768 440 588 440 C 634.3919232 440 672 447.6111584 672 457 C 672 466.3888416 634.3919232 474 588 474 C 541.6080768 474 504 466.3888416 504 457 Z" stroke-miterlimit="10"/></g><g transform="translate(-46,-150) scale(1,1)"><g><path fill="none" stroke="none"/><text fill="#000000" stroke="none" font-family="Arial" font-size="13px" font-style="normal" font-weight="bold" text-decoration="none" x="533.089599609375" y="462.5">Realizar Cadastro</text></g></g><g transform="translate(-46,-150) scale(1,1)"><path fill="none" stroke="#000000" d="M 109 349 L 508 439" stroke-miterlimit="10"/></g><g transform="translate(-46,-150) scale(1,1)"><path fill="none" stroke="#000000" d="M 497.1601495326747 440.8701983440342 L 508 439 L 499.0126382962757 432.6574981587366" stroke-miterlimit="10"/></g><g transform="translate(-46,-150) scale(1,1)"><path fill="#C0C0C0" stroke="none" d="M 447 520 C 447 510.6111584 507.2176944 503 581.5 503 C 655.7823056 503 716 510.6111584 716 520 C 716 529.3888416 655.7823056 537 581.5 537 C 507.2176944 537 447 529.3888416 447 520 Z" opacity="0.2"/></g><g transform="translate(-46,-150) scale(1,1)"><path fill="#ffffff" stroke="none" d="M 440 513 C 440 503.6111584 500.2176944 496 574.5 496 C 648.7823056 496 709 503.6111584 709 513 C 709 522.3888416 648.7823056 530 574.5 530 C 500.2176944 530 440 522.3888416 440 513 Z"/></g><g transform="translate(-46,-150) scale(1,1)"><path fill="none" stroke="#000000" d="M 440 513 C 440 503.6111584 500.2176944 496 574.5 496 C 648.7823056 496 709 503.6111584 709 513 C 709 522.3888416 648.7823056 530 574.5 530 C 500.2176944 530 440 522.3888416 440 513 Z" stroke-miterlimit="10"/></g><g transform="translate(-46,-150) scale(1,1)"><g><path fill="none" stroke="none"/><text fill="#000000" stroke="none" font-family="Arial" font-size="13px" font-style="normal" font-weight="bold" text-decoration="none" x="483.839599609375" y="518.5">Informa Horários Disponíveis</text></g></g><g transform="translate(-46,-150) scale(1,1)"><path fill="none" stroke="#000000" d="M 991 315 L 612 495" stroke-miterlimit="10"/></g><g transform="translate(-46,-150) scale(1,1)"><path fill="none" stroke="#000000" d="M 619.3740326217325 486.8376692732023 L 612 495 L 622.9858678787238 494.44258906431185" stroke-miterlimit="10"/></g><g transform="translate(-46,-150) scale(1,1)"><path fill="#C0C0C0" stroke="none" d="M 503 576 C 503 566.6111584 540.6080768 559 587 559 C 633.3919232 559 671 566.6111584 671 576 C 671 585.3888416 633.3919232 593 587 593 C 540.6080768 593 503 585.3888416 503 576 Z" opacity="0.2"/></g><g transform="translate(-46,-150) scale(1,1)"><path fill="#ffffff" stroke="none" d="M 496 569 C 496 559.6111584 533.6080768 552 580 552 C 626.3919232 552 664 559.6111584 664 569 C 664 578.3888416 626.3919232 586 580 586 C 533.6080768 586 496 578.3888416 496 569 Z"/></g><g transform="translate(-46,-150) scale(1,1)"><path fill="none" stroke="#000000" d="M 496 569 C 496 559.6111584 533.6080768 552 580 552 C 626.3919232 552 664 559.6111584 664 569 C 664 578.3888416 626.3919232 586 580 586 C 533.6080768 586 496 578.3888416 496 569 Z" stroke-miterlimit="10"/></g><g transform="translate(-46,-150) scale(1,1)"><g><path fill="none" stroke="none"/><text fill="#000000" stroke="none" font-family="Arial" font-size="13px" font-style="normal" font-weight="bold" text-decoration="none" x="525.089599609375" y="574.5">Cadastrar Quadra</text></g></g><g transform="translate(-46,-150) scale(1,1)"><path fill="none" stroke="#000000" d="M 998 320 L 610 551" stroke-miterlimit="10"/></g><g transform="translate(-46,-150) scale(1,1)"><path fill="none" stroke="#000000" d="M 616.5788149664613 542.1841509973762 L 610 551 L 620.8856712866284 549.4181780632844" stroke-miterlimit="10"/></g><g transform="translate(-46,-150) scale(1,1)"><path fill="#C0C0C0" stroke="none" d="M 471 624 C 471 614.6111584 521.5918176 607 584 607 C 646.4081824 607 697 614.6111584 697 624 C 697 633.3888416 646.4081824 641 584 641 C 521.5918176 641 471 633.3888416 471 624 Z" opacity="0.2"/></g><g transform="translate(-46,-150) scale(1,1)"><path fill="#ffffff" stroke="none" d="M 464 617 C 464 607.6111584 514.5918176 600 577 600 C 639.4081824 600 690 607.6111584 690 617 C 690 626.3888416 639.4081824 634 577 634 C 514.5918176 634 464 626.3888416 464 617 Z"/></g><g transform="translate(-46,-150) scale(1,1)"><path fill="none" stroke="#000000" d="M 464 617 C 464 607.6111584 514.5918176 600 577 600 C 639.4081824 600 690 607.6111584 690 617 C 690 626.3888416 639.4081824 634 577 634 C 514.5918176 634 464 626.3888416 464 617 Z" stroke-miterlimit="10"/></g><g transform="translate(-46,-150) scale(1,1)"><g><path fill="none" stroke="none"/><text fill="#000000" stroke="none" font-family="Arial" font-size="13px" font-style="normal" font-weight="bold" text-decoration="none" x="501.50732421875" y="622.5">Gerenciar Agendamento</text></g></g><g transform="translate(-46,-150) scale(1,1)"><path fill="none" stroke="#000000" d="M 1008 320 L 603 599" stroke-miterlimit="10"/></g><g transform="translate(-46,-150) scale(1,1)"><path fill="none" stroke="#000000" d="M 608.9809585267676 589.7680914702817 L 603 599 L 613.7571214569306 596.7012312076151" stroke-miterlimit="10"/></g></g></svg>