<svg version="1.1" xmlns="http://www.w3.org/2000/svg" xmlns:xlink="http://www.w3.org/1999/xlink" width="1112" height="494"><defs/><g><text fill="#eeeeee" stroke="none" font-family="Arial" font-size="24px" font-style="normal" font-weight="normal" text-decoration="none" x="0" y="0">UNREGISTERED</text><text fill="#eeeeee" stroke="none" font-family="Arial" font-size="24px" font-style="normal" font-weight="normal" text-decoration="none" x="0" y="30">UNREGISTERED</text><text fill="#eeeeee" stroke="none" font-family="Arial" font-size="24px" font-style="normal" font-weight="normal" text-decoration="none" x="0" y="60">UNREGISTERED</text><text fill="#eeeeee" stroke="none" font-family="Arial" font-size="24px" font-style="normal" font-weight="normal" text-decoration="none" x="0" y="90">UNREGISTERED</text><text fill="#eeeeee" stroke="none" font-family="Arial" font-size="24px" font-style="normal" font-weight="normal" text-decoration="none" x="0" y="120">UNREGISTERED</text><text fill="#eeeeee" stroke="none" font-family="Arial" font-size="24px" font-style="normal" font-weight="normal" text-decoration="none" x="0" y="150">UNREGISTERED</text><text fill="#eeeeee" stroke="none" font-family="Arial" font-size="24px" font-style="normal" font-weight="normal" text-decoration="none" x="0" y="180">UNREGISTERED</text><text fill="#eeeeee" stroke="none" font-family="Arial" font-size="24px" font-style="normal" font-weight="normal" text-decoration="none" x="0" y="210">UNREGISTERED</text><text fill="#eeeeee" stroke="none" font-family="Arial" font-size="24px" font-style="normal" font-weight="normal" text-decoration="none" x="0" y="240">UNREGISTERED</text><text fill="#eeeeee" stroke="none" font-family="Arial" font-size="24px" font-style="normal" font-weight="normal" text-decoration="none" x="0" y="270">UNREGISTERED</text><text fill="#eeeeee" stroke="none" font-family="Arial" font-size="24px" font-style="normal" font-weight="normal" text-decoration="none" x="0" y="300">UNREGISTERED</text><text fill="#eeeeee" stroke="none" font-family="Arial" font-size="24px" font-style="normal" font-weight="normal" text-decoration="none" x="0" y="330">UNREGISTERED</text><text fill="#eeeeee" stroke="none" font-family="Arial" font-size="24px" font-style="normal" font-weight="normal" text-decoration="none" x="0" y="360">UNREGISTERED</text><text fill="#eeeeee" stroke="none" font-family="Arial" font-size="24px" font-style="normal" font-weight="normal" text-decoration="none" x="0" y="390">UNREGISTERED</text><text fill="#eeeeee" stroke="none" font-family="Arial" font-size="24px" font-style="normal" font-weight="normal" text-decoration="none" x="0" y="420">UNREGISTERED</text><text fill="#eeeeee" stroke="none" font-family="Arial" font-size="24px" font-style="normal" font-weight="normal" text-decoration="none" x="0" y="450">UNREGISTERED</text><text fill="#eeeeee" stroke="none" font-family="Arial" font-size="24px" font-style="normal" font-weight="normal" text-decoration="none" x="0" y="480">UNREGISTERED</text><text fill="#eeeeee" stroke="none" font-family="Arial" font-size="24px" font-style="normal" font-weight="normal" text-decoration="none" x="200" y="0">UNREGISTERED</text><text fill="#eeeeee" stroke="none" font-family="Arial" font-size="24px" font-style="normal" font-weight="normal" text-decoration="none" x="200" y="30">UNREGISTERED</text><text fill="#eeeeee" stroke="none" font-family="Arial" font-size="24px" font-style="normal" font-weight="normal" text-decoration="none" x="200" y="60">UNREGISTERED</text><text fill="#eeeeee" stroke="none" font-family="Arial" font-size="24px" font-style="normal" font-weight="normal" text-decoration="none" x="200" y="90">UNREGISTERED</text><text fill="#eeeeee" stroke="none" font-family="Arial" font-size="24px" font-style="normal" font-weight="normal" text-decoration="none" x="200" y="120">UNREGISTERED</text><text fill="#eeeeee" stroke="none" font-family="Arial" font-size="24px" font-style="normal" font-weight="normal" text-decoration="none" x="200" y="150">UNREGISTERED</text><text fill="#eeeeee" stroke="none" font-family="Arial" font-size="24px" font-style="normal" font-weight="normal" text-decoration="none" x="200" y="180">UNREGISTERED</text><text fill="#eeeeee" stroke="none" font-family="Arial" font-size="24px" font-style="normal" font-weight="normal" text-decoration="none" x="200" y="210">UNREGISTERED</text><text fill="#eeeeee" stroke="none" font-family="Arial" font-size="24px" font-style="normal" font-weight="normal" text-decoration="none" x="200" y="240">UNREGISTERED</text><text fill="#eeeeee" stroke="none" font-family="Arial" font-size="24px" font-style="normal" font-weight="normal" text-decoration="none" x="200" y="270">UNREGISTERED</text><text fill="#eeeeee" stroke="none" font-family="Arial" font-size="24px" font-style="normal" font-weight="normal" text-decoration="none" x="200" y="300">UNREGISTERED</text><text fill="#eeeeee" stroke="none" font-family="Arial" font-size="24px" font-style="normal" font-weight="normal" text-decoration="none" x="200" y="330">UNREGISTERED</text><text fill="#eeeeee" stroke="none" font-family="Arial" font-size="24px" font-style="normal" font-weight="normal" text-decoration="none" x="200" y="360">UNREGISTERED</text><text fill="#eeeeee" stroke="none" font-family="Arial" font-size="24px" font-style="normal" font-weight="normal" text-decoration="none" x="200" y="390">UNREGISTERED</text><text fill="#eeeeee" stroke="none" font-family="Arial" font-size="24px" font-style="normal" font-weight="normal" text-decoration="none" x="200" y="420">UNREGISTERED</text><text fill="#eeeeee" stroke="none" font-family="Arial" font-size="24px" font-style="normal" font-weight="normal" text-decoration="none" x="200" y="450">UNREGISTERED</text><text fill="#eeeeee" stroke="none" font-family="Arial" font-size="24px" font-style="normal" font-weight="normal" text-decoration="none" x="200" y="480">UNREGISTERED</text><text fill="#eeeeee" stroke="none" font-family="Arial" font-size="24px" font-style="normal" font-weight="normal" text-decoration="none" x="400" y="0">UNREGISTERED</text><text fill="#eeeeee" stroke="none" font-family="Arial" font-size="24px" font-style="normal" font-weight="normal" text-decoration="none" x="400" y="30">UNREGISTERED</text><text fill="#eeeeee" stroke="none" font-family="Arial" font-size="24px" font-style="normal" font-weight="normal" text-decoration="none" x="400" y="60">UNREGISTERED</text><text fill="#eeeeee" stroke="none" font-family="Arial" font-size="24px" font-style="normal" font-weight="normal" text-decoration="none" x="400" y="90">UNREGISTERED</text><text fill="#eeeeee" stroke="none" font-family="Arial" font-size="24px" font-style="normal" font-weight="normal" text-decoration="none" x="400" y="120">UNREGISTERED</text><text fill="#eeeeee" stroke="none" font-family="Arial" font-size="24px" font-style="normal" font-weight="normal" text-decoration="none" x="400" y="150">UNREGISTERED</text><text fill="#eeeeee" stroke="none" font-family="Arial" font-size="24px" font-style="normal" font-weight="normal" text-decoration="none" x="400" y="180">UNREGISTERED</text><text fill="#eeeeee" stroke="none" font-family="Arial" font-size="24px" font-style="normal" font-weight="normal" text-decoration="none" x="400" y="210">UNREGISTERED</text><text fill="#eeeeee" stroke="none" font-family="Arial" font-size="24px" font-style="normal" font-weight="normal" text-decoration="none" x="400" y="240">UNREGISTERED</text><text fill="#eeeeee" stroke="none" font-family="Arial" font-size="24px" font-style="normal" font-weight="normal" text-decoration="none" x="400" y="270">UNREGISTERED</text><text fill="#eeeeee" stroke="none" font-family="Arial" font-size="24px" font-style="normal" font-weight="normal" text-decoration="none" x="400" y="300">UNREGISTERED</text><text fill="#eeeeee" stroke="none" font-family="Arial" font-size="24px" font-style="normal" font-weight="normal" text-decoration="none" x="400" y="330">UNREGISTERED</text><text fill="#eeeeee" stroke="none" font-family="Arial" font-size="24px" font-style="normal" font-weight="normal" text-decoration="none" x="400" y="360">UNREGISTERED</text><text fill="#eeeeee" stroke="none" font-family="Arial" font-size="24px" font-style="normal" font-weight="normal" text-decoration="none" x="400" y="390">UNREGISTERED</text><text fill="#eeeeee" stroke="none" font-family="Arial" font-size="24px" font-style="normal" font-weight="normal" text-decoration="none" x="400" y="420">UNREGISTERED</text><text fill="#eeeeee" stroke="none" font-family="Arial" font-size="24px" font-style="normal" font-weight="normal" text-decoration="none" x="400" y="450">UNREGISTERED</text><text fill="#eeeeee" stroke="none" font-family="Arial" font-size="24px" font-style="normal" font-weight="normal" text-decoration="none" x="400" y="480">UNREGISTERED</text><text fill="#eeeeee" stroke="none" font-family="Arial" font-size="24px" font-style="normal" font-weight="normal" text-decoration="none" x="600" y="0">UNREGISTERED</text><text fill="#eeeeee" stroke="none" font-family="Arial" font-size="24px" font-style="normal" font-weight="normal" text-decoration="none" x="600" y="30">UNREGISTERED</text><text fill="#eeeeee" stroke="none" font-family="Arial" font-size="24px" font-style="normal" font-weight="normal" text-decoration="none" x="600" y="60">UNREGISTERED</text><text fill="#eeeeee" stroke="none" font-family="Arial" font-size="24px" font-style="normal" font-weight="normal" text-decoration="none" x="600" y="90">UNREGISTERED</text><text fill="#eeeeee" stroke="none" font-family="Arial" font-size="24px" font-style="normal" font-weight="normal" text-decoration="none" x="600" y="120">UNREGISTERED</text><text fill="#eeeeee" stroke="none" font-family="Arial" font-size="24px" font-style="normal" font-weight="normal" text-decoration="none" x="600" y="150">UNREGISTERED</text><text fill="#eeeeee" stroke="none" font-family="Arial" font-size="24px" font-style="normal" font-weight="normal" text-decoration="none" x="600" y="180">UNREGISTERED</text><text fill="#eeeeee" stroke="none" font-family="Arial" font-size="24px" font-style="normal" font-weight="normal" text-decoration="none" x="600" y="210">UNREGISTERED</text><text fill="#eeeeee" stroke="none" font-family="Arial" font-size="24px" font-style="normal" font-weight="normal" text-decoration="none" x="600" y="240">UNREGISTERED</text><text fill="#eeeeee" stroke="none" font-family="Arial" font-size="24px" font-style="normal" font-weight="normal" text-decoration="none" x="600" y="270">UNREGISTERED</text><text fill="#eeeeee" stroke="none" font-family="Arial" font-size="24px" font-style="normal" font-weight="normal" text-decoration="none" x="600" y="300">UNREGISTERED</text><text fill="#eeeeee" stroke="none" font-family="Arial" font-size="24px" font-style="normal" font-weight="normal" text-decoration="none" x="600" y="330">UNREGISTERED</text><text fill="#eeeeee" stroke="none" font-family="Arial" font-size="24px" font-style="normal" font-weight="normal" text-decoration="none" x="600" y="360">UNREGISTERED</text><text fill="#eeeeee" stroke="none" font-family="Arial" font-size="24px" font-style="normal" font-weight="normal" text-decoration="none" x="600" y="390">UNREGISTERED</text><text fill="#eeeeee" stroke="none" font-family="Arial" font-size="24px" font-style="normal" font-weight="normal" text-decoration="none" x="600" y="420">UNREGISTERED</text><text fill="#eeeeee" stroke="none" font-family="Arial" font-size="24px" font-style="normal" font-weight="normal" text-decoration="none" x="600" y="450">UNREGISTERED</text><text fill="#eeeeee" stroke="none" font-family="Arial" font-size="24px" font-style="normal" font-weight="normal" text-decoration="none" x="600" y="480">UNREGISTERED</text><text fill="#eeeeee" stroke="none" font-family="Arial" font-size="24px" font-style="normal" font-weight="normal" text-decoration="none" x="800" y="0">UNREGISTERED</text><text fill="#eeeeee" stroke="none" font-family="Arial" font-size="24px" font-style="normal" font-weight="normal" text-decoration="none" x="800" y="30">UNREGISTERED</text><text fill="#eeeeee" stroke="none" font-family="Arial" font-size="24px" font-style="normal" font-weight="normal" text-decoration="none" x="800" y="60">UNREGISTERED</text><text fill="#eeeeee" stroke="none" font-family="Arial" font-size="24px" font-style="normal" font-weight="normal" text-decoration="none" x="800" y="90">UNREGISTERED</text><text fill="#eeeeee" stroke="none" font-family="Arial" font-size="24px" font-style="normal" font-weight="normal" text-decoration="none" x="800" y="120">UNREGISTERED</text><text fill="#eeeeee" stroke="none" font-family="Arial" font-size="24px" font-style="normal" font-weight="normal" text-decoration="none" x="800" y="150">UNREGISTERED</text><text fill="#eeeeee" stroke="none" font-family="Arial" font-size="24px" font-style="normal" font-weight="normal" text-decoration="none" x="800" y="180">UNREGISTERED</text><text fill="#eeeeee" stroke="none" font-family="Arial" font-size="24px" font-style="normal" font-weight="normal" text-decoration="none" x="800" y="210">UNREGISTERED</text><text fill="#eeeeee" stroke="none" font-family="Arial" font-size="24px" font-style="normal" font-weight="normal" text-decoration="none" x="800" y="240">UNREGISTERED</text><text fill="#eeeeee" stroke="none" font-family="Arial" font-size="24px" font-style="normal" font-weight="normal" text-decoration="none" x="800" y="270">UNREGISTERED</text><text fill="#eeeeee" stroke="none" font-family="Arial" font-size="24px" font-style="normal" font-weight="normal" text-decoration="none" x="800" y="300">UNREGISTERED</text><text fill="#eeeeee" stroke="none" font-family="Arial" font-size="24px" font-style="normal" font-weight="normal" text-decoration="none" x="800" y="330">UNREGISTERED</text><text fill="#eeeeee" stroke="none" font-family="Arial" font-size="24px" font-style="normal" font-weight="normal" text-decoration="none" x="800" y="360">UNREGISTERED</text><text fill="#eeeeee" stroke="none" font-family="Arial" font-size="24px" font-style="normal" font-weight="normal" text-decoration="none" x="800" y="390">UNREGISTERED</text><text fill="#eeeeee" stroke="none" font-family="Arial" font-size="24px" font-style="normal" font-weight="normal" text-decoration="none" x="800" y="420">UNREGISTERED</text><text fill="#eeeeee" stroke="none" font-family="Arial" font-size="24px" font-style="normal" font-weight="normal" text-decoration="none" x="800" y="450">UNREGISTERED</text><text fill="#eeeeee" stroke="none" font-family="Arial" font-size="24px" font-style="normal" font-weight="normal" text-decoration="none" x="800" y="480">UNREGISTERED</text><text fill="#eeeeee" stroke="none" font-family="Arial" font-size="24px" font-style="normal" font-weight="normal" text-decoration="none" x="1000" y="0">UNREGISTERED</text><text fill="#eeeeee" stroke="none" font-family="Arial" font-size="24px" font-style="normal" font-weight="normal" text-decoration="none" x="1000" y="30">UNREGISTERED</text><text fill="#eeeeee" stroke="none" font-family="Arial" font-size="24px" font-style="normal" font-weight="normal" text-decoration="none" x="1000" y="60">UNREGISTERED</text><text fill="#eeeeee" stroke="none" font-family="Arial" font-size="24px" font-style="normal" font-weight="normal" text-decoration="none" x="1000" y="90">UNREGISTERED</text><text fill="#eeeeee" stroke="none" font-family="Arial" font-size="24px" font-style="normal" font-weight="normal" text-decoration="none" x="1000" y="120">UNREGISTERED</text><text fill="#eeeeee" stroke="none" font-family="Arial" font-size="24px" font-style="normal" font-weight="normal" text-decoration="none" x="1000" y="150">UNREGISTERED</text><text fill="#eeeeee" stroke="none" font-family="Arial" font-size="24px" font-style="normal" font-weight="normal" text-decoration="none" x="1000" y="180">UNREGISTERED</text><text fill="#eeeeee" stroke="none" font-family="Arial" font-size="24px" font-style="normal" font-weight="normal" text-decoration="none" x="1000" y="210">UNREGISTERED</text><text fill="#eeeeee" stroke="none" font-family="Arial" font-size="24px" font-style="normal" font-weight="normal" text-decoration="none" x="1000" y="240">UNREGISTERED</text><text fill="#eeeeee" stroke="none" font-family="Arial" font-size="24px" font-style="normal" font-weight="normal" text-decoration="none" x="1000" y="270">UNREGISTERED</text><text fill="#eeeeee" stroke="none" font-family="Arial" font-size="24px" font-style="normal" font-weight="normal" text-decoration="none" x="1000" y="300">UNREGISTERED</text><text fill="#eeeeee" stroke="none" font-family="Arial" font-size="24px" font-style="normal" font-weight="normal" text-decoration="none" x="1000" y="330">UNREGISTERED</text><text fill="#eeeeee" stroke="none" font-family="Arial" font-size="24px" font-style="normal" font-weight="normal" text-decoration="none" x="1000" y="360">UNREGISTERED</text><text fill="#eeeeee" stroke="none" font-family="Arial" font-size="24px" font-style="normal" font-weight="normal" text-decoration="none" x="1000" y="390">UNREGISTERED</text><text fill="#eeeeee" stroke="none" font-family="Arial" font-size="24px" font-style="normal" font-weight="normal" text-decoration="none" x="1000" y="420">UNREGISTERED</text><text fill="#eeeeee" stroke="none" font-family="Arial" font-size="24px" font-style="normal" font-weight="normal" text-decoration="none" x="1000" y="450">UNREGISTERED</text><text fill="#eeeeee" stroke="none" font-family="Arial" font-size="24px" font-style="normal" font-weight="normal" text-decoration="none" x="1000" y="480">UNREGISTERED</text><g transform="translate(-46,-150) scale(1,1)"><path fill="#ffffff" stroke="none" d="M 1061.3207272727273 249.68 C 1061.3207272727273 244.886167936 1065.2065695976728 241 1070 241 C 1074.7934304023272 241 1078.6792727272727 244.886167936 1078.6792727272727 249.68 C 1078.6792727272727 254.47383206400002 1074.7934304023272 258.36 1070 258.36 C 1065.2065695976728 258.36 1061.3207272727273 254.47383206400002 1061.3207272727273 249.68 Z"/></g><g transform="translate(-46,-150) scale(1,1)"><path fill="none" stroke="#000000" d="M 1061.3207272727273 249.68 C 1061.3207272727273 244.886167936 1065.2065695976728 241 1070 241 C 1074.7934304023272 241 1078.6792727272727 244.886167936 1078.6792727272727 249.68 C 1078.6792727272727 254.47383206400002 1074.7934304023272 258.36 1070 258.36 C 1065.2065695976728 258.36 1061.3207272727273 254.47383206400002 1061.3207272727273 249.68 Z" stroke-miterlimit="10"/></g><g transform="translate(-46,-150) scale(1,1)"><path fill="none" stroke="#000000" d="M 1070 258.36 L 1070 275.64" stroke-miterlimit="10"/></g><g transform="translate(-46,-150) scale(1,1)"><path fill="none" stroke="#000000" d="M 1060.8101818181817 264.84 L 1079.1898181818183 264.84" stroke-miterlimit="10"/></g><g transform="translate(-46,-150) scale(1,1)"><path fill="none" stroke="#000000" d="M 1070 275.64 L 1057.2363636363636 293" stroke-miterlimit="10"/></g><g transform="translate(-46,-150) scale(1,1)"><path fill="none" stroke="#000000" d="M 1070 275.64 L 1082.7636363636364 293" stroke-miterlimit="10"/></g><g transform="translate(-46,-150) scale(1,1)"><g><path fill="none" stroke="none"/><text fill="#000000" stroke="none" font-family="Arial" font-size="13px" font-style="normal" font-weight="bold" text-decoration="none" x="999.20458984375" y="312">Proprietário da Quadra</text></g></g><g transform="translate(-46,-150) scale(1,1)"><path fill="#ffffff" stroke="none" d="M 74.32072727272727 313.68 C 74.32072727272727 308.886167936 78.20656959767273 305 83 305 C 87.79343040232727 305 91.67927272727273 308.886167936 91.67927272727273 313.68 C 91.67927272727273 318.473832064 87.79343040232727 322.36 83 322.36 C 78.20656959767273 322.36 74.32072727272727 318.473832064 74.32072727272727 313.68 Z"/></g><g transform="translate(-46,-150) scale(1,1)"><path fill="none" stroke="#000000" d="M 74.32072727272727 313.68 C 74.32072727272727 308.886167936 78.20656959767273 305 83 305 C 87.79343040232727 305 91.67927272727273 308.886167936 91.67927272727273 313.68 C 91.67927272727273 318.473832064 87.79343040232727 322.36 83 322.36 C 78.20656959767273 322.36 74.32072727272727 318.473832064 74.32072727272727 313.68 Z" stroke-miterlimit="10"/></g><g transform="translate(-46,-150) scale(1,1)"><path fill="none" stroke="#000000" d="M 83 322.36 L 83 339.64" stroke-miterlimit="10"/></g><g transform="translate(-46,-150) scale(1,1)"><path fill="none" stroke="#000000" d="M 73.81018181818182 328.84 L 92.18981818181818 328.84" stroke-miterlimit="10"/></g><g transform="translate(-46,-150) scale(1,1)"><path fill="none" stroke="#000000" d="M 83 339.64 L 70.23636363636363 357" stroke-miterlimit="10"/></g><g transform="translate(-46,-150) scale(1,1)"><path fill="none" stroke="#000000" d="M 83 339.64 L 95.76363636363637 357" stroke-miterlimit="10"/></g><g transform="translate(-46,-150) scale(1,1)"><g><path fill="none" stroke="none"/><text fill="#000000" stroke="none" font-family="Arial" font-size="13px" font-style="normal" font-weight="bold" text-decoration="none" x="61.3291015625" y="376">Cliente</text></g></g><g transform="translate(-46,-150) scale(1,1)"><path fill="#C0C0C0" stroke="none" d="M 439 184 C 439 174.6111584 492.725824 167 559 167 C 625.274176 167 679 174.6111584 679 184 C 679 193.3888416 625.274176 201 559 201 C 492.725824 201 439 193.3888416 439 184 Z" opacity="0.2"/></g><g transform="translate(-46,-150) scale(1,1)"><path fill="#ffffff" stroke="none" d="M 432 177 C 432 167.6111584 485.725824 160 552 160 C 618.274176 160 672 167.6111584 672 177 C 672 186.3888416 618.274176 194 552 194 C 485.725824 194 432 186.3888416 432 177 Z"/></g><g transform="translate(-46,-150) scale(1,1)"><path fill="none" stroke="#000000" d="M 432 177 C 432 167.6111584 485.725824 160 552 160 C 618.274176 160 672 167.6111584 672 177 C 672 186.3888416 618.274176 194 552 194 C 485.725824 194 432 186.3888416 432 177 Z" stroke-miterlimit="10"/></g><g transform="translate(-46,-150) scale(1,1)"><g><path fill="none" stroke="none"/><text fill="#000000" stroke="none" font-family="Arial" font-size="13px" font-style="normal" font-weight="bold" text-decoration="none" x="472.171875" y="182.5">Contratar Planos Mensais</text></g></g><g transform="translate(-46,-150) scale(1,1)"><path fill="#C0C0C0" stroke="none" d="M 487 264 C 487 254.6111584 536.0248144 247 596.5 247 C 656.9751856 247 706 254.6111584 706 264 C 706 273.3888416 656.9751856 281 596.5 281 C 536.0248144 281 487 273.3888416 487 264 Z" opacity="0.2"/></g><g transform="translate(-46,-150) scale(1,1)"><path fill="#ffffff" stroke="none" d="M 480 257 C 480 247.6111584 529.0248144 240 589.5 240 C 649.9751856 240 699 247.6111584 699 257 C 699 266.3888416 649.9751856 274 589.5 274 C 529.0248144 274 480 266.3888416 480 257 Z"/></g><g transform="translate(-46,-150) scale(1,1)"><path fill="none" stroke="#000000" d="M 480 257 C 480 247.6111584 529.0248144 240 589.5 240 C 649.9751856 240 699 247.6111584 699 257 C 699 266.3888416 649.9751856 274 589.5 274 C 529.0248144 274 480 266.3888416 480 257 Z" stroke-miterlimit="10"/></g><g transform="translate(-46,-150) scale(1,1)"><g><path fill="none" stroke="none"/><text fill="#000000" stroke="none" font-family="Arial" font-size="13px" font-style="normal" font-weight="bold" text-decoration="none" x="519.42822265625" y="262.5">Realizar Agendamento</text></g></g><g transform="translate(-46,-150) scale(1,1)"><path fill="none" stroke="#000000" d="M 111 338 L 483 275" stroke-miterlimit="10"/></g><g transform="translate(-46,-150) scale(1,1)"><path fill="none" stroke="#000000" d="M 473.682895034908 280.84735453598097 L 483 275 L 472.2771078537625 272.5465159425506" stroke-miterlimit="10"/></g><g transform="translate(-46,-150) scale(1,1)"><path fill="none" stroke="#000000" d="M 111 333 L 501 195" stroke-miterlimit="10"/></g><g transform="translate(-46,-150) scale(1,1)"><path fill="none" stroke="#000000" d="M 492.82362531072044 202.35845751095357 L 501 195 L 490.01521480662007 194.42164521675673" stroke-miterlimit="10"/></g><g transform="translate(-46,-150) scale(1,1)"><path fill="#C0C0C0" stroke="none" d="M 455 344 C 455 334.6111584 507.1588208 327 571.5 327 C 635.8411791999999 327 688 334.6111584 688 344 C 688 353.3888416 635.8411791999999 361 571.5 361 C 507.1588208 361 455 353.3888416 455 344 Z" opacity="0.2"/></g><g transform="translate(-46,-150) scale(1,1)"><path fill="#ffffff" stroke="none" d="M 448 337 C 448 327.6111584 500.1588208 320 564.5 320 C 628.8411791999999 320 681 327.6111584 681 337 C 681 346.3888416 628.8411791999999 354 564.5 354 C 500.1588208 354 448 346.3888416 448 337 Z"/></g><g transform="translate(-46,-150) scale(1,1)"><path fill="none" stroke="#000000" d="M 448 337 C 448 327.6111584 500.1588208 320 564.5 320 C 628.8411791999999 320 681 327.6111584 681 337 C 681 346.3888416 628.8411791999999 354 564.5 354 C 500.1588208 354 448 346.3888416 448 337 Z" stroke-miterlimit="10"/></g><g transform="translate(-46,-150) scale(1,1)"><g><path fill="none" stroke="none"/><text fill="#000000" stroke="none" font-family="Arial" font-size="13px" font-style="normal" font-weight="bold" text-decoration="none" x="489.1279296875" y="342.5">Visualizar Agendamento</text></g></g><g transform="translate(-46,-150) scale(1,1)"><path fill="none" stroke="#000000" d="M 111 343 L 447 338" stroke-miterlimit="10"/></g><g transform="translate(-46,-150) scale(1,1)"><path fill="none" stroke="#000000" d="M 436.901084879491 342.3602652888046 L 447 338 L 436.77581548217466 333.9421617891468" stroke-miterlimit="10"/></g><g transform="translate(-46,-150) scale(1,1)"><path fill="#C0C0C0" stroke="none" d="M 479 400 C 479 390.6111584 529.36796 383 591.5 383 C 653.63204 383 704 390.6111584 704 400 C 704 409.3888416 653.63204 417 591.5 417 C 529.36796 417 479 409.3888416 479 400 Z" opacity="0.2"/></g><g transform="translate(-46,-150) scale(1,1)"><path fill="#ffffff" stroke="none" d="M 472 393 C 472 383.6111584 522.36796 376 584.5 376 C 646.63204 376 697 383.6111584 697 393 C 697 402.3888416 646.63204 410 584.5 410 C 522.36796 410 472 402.3888416 472 393 Z"/></g><g transform="translate(-46,-150) scale(1,1)"><path fill="none" stroke="#000000" d="M 472 393 C 472 383.6111584 522.36796 376 584.5 376 C 646.63204 376 697 383.6111584 697 393 C 697 402.3888416 646.63204 410 584.5 410 C 522.36796 410 472 402.3888416 472 393 Z" stroke-miterlimit="10"/></g><g transform="translate(-46,-150) scale(1,1)"><g><path fill="none" stroke="none"/><text fill="#000000" stroke="none" font-family="Arial" font-size="13px" font-style="normal" font-weight="bold" text-decoration="none" x="511.898681640625" y="398.5">Cancelar Agendamento</text></g></g><g transform="translate(-46,-150) scale(1,1)"><path fill="none" stroke="#000000" d="M 111 346 L 471 382" stroke-miterlimit="10"/></g><g transform="translate(-46,-150) scale(1,1)"><path fill="none" stroke="#000000" d="M 460.46889789264344 385.1774027765504 L 471 382 L 461.30662323666047 376.80014933638" stroke-miterlimit="10"/></g><g transform="translate(-46,-150) scale(1,1)"><path fill="#C0C0C0" stroke="none" d="M 511 464 C 511 454.6111584 549.5035072000001 447 597 447 C 644.4964927999999 447 683 454.6111584 683 464 C 683 473.3888416 644.4964927999999 481 597 481 C 549.5035072000001 481 511 473.3888416 511 464 Z" opacity="0.2"/></g><g transform="translate(-46,-150) scale(1,1)"><path fill="#ffffff" stroke="none" d="M 504 457 C 504 447.6111584 542.5035072000001 440 590 440 C 637.4964927999999 440 676 447.6111584 676 457 C 676 466.3888416 637.4964927999999 474 590 474 C 542.5035072000001 474 504 466.3888416 504 457 Z"/></g><g transform="translate(-46,-150) scale(1,1)"><path fill="none" stroke="#000000" d="M 504 457 C 504 447.6111584 542.5035072000001 440 590 440 C 637.4964927999999 440 676 447.6111584 676 457 C 676 466.3888416 637.4964927999999 474 590 474 C 542.5035072000001 474 504 466.3888416 504 457 Z" stroke-miterlimit="10"/></g><g transform="translate(-46,-150) scale(1,1)"><g><path fill="none" stroke="none"/><text fill="#000000" stroke="none" font-family="Arial" font-size="13px" font-style="normal" font-weight="bold" text-decoration="none" x="535.089599609375" y="462.5">Realizar Cadastro</text></g></g><g transform="translate(-46,-150) scale(1,1)"><path fill="none" stroke="#000000" d="M 111 349 L 510 439" stroke-miterlimit="10"/></g><g transform="translate(-46,-150) scale(1,1)"><path fill="none" stroke="#000000" d="M 499.1601495326747 440.8701983440342 L 510 439 L 501.0126382962757 432.6574981587366" stroke-miterlimit="10"/></g><g transform="translate(-46,-150) scale(1,1)"><path fill="#C0C0C0" stroke="none" d="M 447 520 C 447 510.6111584 507.441552 503 582 503 C 656.558448 503 717 510.6111584 717 520 C 717 529.3888416 656.558448 537 582 537 C 507.441552 537 447 529.3888416 447 520 Z" opacity="0.2"/></g><g transform="translate(-46,-150) scale(1,1)"><path fill="#ffffff" stroke="none" d="M 440 513 C 440 503.6111584 500.441552 496 575 496 C 649.558448 496 710 503.6111584 710 513 C 710 522.3888416 649.558448 530 575 530 C 500.441552 530 440 522.3888416 440 513 Z"/></g><g transform="translate(-46,-150) scale(1,1)"><path fill="none" stroke="#000000" d="M 440 513 C 440 503.6111584 500.441552 496 575 496 C 649.558448 496 710 503.6111584 710 513 C 710 522.3888416 649.558448 530 575 530 C 500.441552 530 440 522.3888416 440 513 Z" stroke-miterlimit="10"/></g><g transform="translate(-46,-150) scale(1,1)"><g><path fill="none" stroke="none"/><text fill="#000000" stroke="none" font-family="Arial" font-size="13px" font-style="normal" font-weight="bold" text-decoration="none" x="484.339599609375" y="518.5">Informa Horários Disponíveis</text></g></g><g transform="translate(-46,-150) scale(1,1)"><path fill="none" stroke="#000000" d="M 991 316 L 613 495" stroke-miterlimit="10"/></g><g transform="translate(-46,-150) scale(1,1)"><path fill="none" stroke="#000000" d="M 620.3832841160312 486.84603681257005 L 613 495 L 623.9864929292497 494.45504760249537" stroke-miterlimit="10"/></g><g transform="translate(-46,-150) scale(1,1)"><path fill="#C0C0C0" stroke="none" d="M 503 576 C 503 566.6111584 541.2796496 559 588.5 559 C 635.7203504 559 674 566.6111584 674 576 C 674 585.3888416 635.7203504 593 588.5 593 C 541.2796496 593 503 585.3888416 503 576 Z" opacity="0.2"/></g><g transform="translate(-46,-150) scale(1,1)"><path fill="#ffffff" stroke="none" d="M 496 569 C 496 559.6111584 534.2796496 552 581.5 552 C 628.7203504 552 667 559.6111584 667 569 C 667 578.3888416 628.7203504 586 581.5 586 C 534.2796496 586 496 578.3888416 496 569 Z"/></g><g transform="translate(-46,-150) scale(1,1)"><path fill="none" stroke="#000000" d="M 496 569 C 496 559.6111584 534.2796496 552 581.5 552 C 628.7203504 552 667 559.6111584 667 569 C 667 578.3888416 628.7203504 586 581.5 586 C 534.2796496 586 496 578.3888416 496 569 Z" stroke-miterlimit="10"/></g><g transform="translate(-46,-150) scale(1,1)"><g><path fill="none" stroke="none"/><text fill="#000000" stroke="none" font-family="Arial" font-size="13px" font-style="normal" font-weight="bold" text-decoration="none" x="526.589599609375" y="574.5">Cadastrar Quadra</text></g></g><g transform="translate(-46,-150) scale(1,1)"><path fill="none" stroke="#000000" d="M 1001 320 L 611 551" stroke-miterlimit="10"/></g><g transform="translate(-46,-150) scale(1,1)"><path fill="none" stroke="#000000" d="M 617.5986970348516 542.1990229268428 L 611 551 L 621.889213989836 549.4427528508423" stroke-miterlimit="10"/></g><g transform="translate(-46,-150) scale(1,1)"><path fill="#C0C0C0" stroke="none" d="M 471 624 C 471 614.6111584 523.1588208000001 607 587.5 607 C 651.8411791999999 607 704 614.6111584 704 624 C 704 633.3888416 651.8411791999999 641 587.5 641 C 523.1588208000001 641 471 633.3888416 471 624 Z" opacity="0.2"/></g><g transform="translate(-46,-150) scale(1,1)"><path fill="#ffffff" stroke="none" d="M 464 617 C 464 607.6111584 516.1588208000001 600 580.5 600 C 644.8411791999999 600 697 607.6111584 697 617 C 697 626.3888416 644.8411791999999 634 580.5 634 C 516.1588208000001 634 464 626.3888416 464 617 Z"/></g><g transform="translate(-46,-150) scale(1,1)"><path fill="none" stroke="#000000" d="M 464 617 C 464 607.6111584 516.1588208000001 600 580.5 600 C 644.8411791999999 600 697 607.6111584 697 617 C 697 626.3888416 644.8411791999999 634 580.5 634 C 516.1588208000001 634 464 626.3888416 464 617 Z" stroke-miterlimit="10"/></g><g transform="translate(-46,-150) scale(1,1)"><g><path fill="none" stroke="none"/><text fill="#000000" stroke="none" font-family="Arial" font-size="13px" font-style="normal" font-weight="bold" text-decoration="none" x="505.00732421875" y="622.5">Gerenciar Agendamento</text></g></g><g transform="translate(-46,-150) scale(1,1)"><path fill="none" stroke="#000000" d="M 1011 320 L 606 599" stroke-miterlimit="10"/></g><g transform="translate(-46,-150) scale(1,1)"><path fill="none" stroke="#000000" d="M 611.9809585267676 589.7680914702817 L 606 599 L 616.7571214569306 596.7012312076151" stroke-miterlimit="10"/></g></g></svg>