<svg version="1.1" xmlns="http://www.w3.org/2000/svg" xmlns:xlink="http://www.w3.org/1999/xlink" width="950" height="684"><defs/><g><text fill="#eeeeee" stroke="none" font-family="Arial" font-size="24px" font-style="normal" font-weight="normal" text-decoration="none" x="0" y="0">UNREGISTERED</text><text fill="#eeeeee" stroke="none" font-family="Arial" font-size="24px" font-style="normal" font-weight="normal" text-decoration="none" x="0" y="30">UNREGISTERED</text><text fill="#eeeeee" stroke="none" font-family="Arial" font-size="24px" font-style="normal" font-weight="normal" text-decoration="none" x="0" y="60">UNREGISTERED</text><text fill="#eeeeee" stroke="none" font-family="Arial" font-size="24px" font-style="normal" font-weight="normal" text-decoration="none" x="0" y="90">UNREGISTERED</text><text fill="#eeeeee" stroke="none" font-family="Arial" font-size="24px" font-style="normal" font-weight="normal" text-decoration="none" x="0" y="120">UNREGISTERED</text><text fill="#eeeeee" stroke="none" font-family="Arial" font-size="24px" font-style="normal" font-weight="normal" text-decoration="none" x="0" y="150">UNREGISTERED</text><text fill="#eeeeee" stroke="none" font-family="Arial" font-size="24px" font-style="normal" font-weight="normal" text-decoration="none" x="0" y="180">UNREGISTERED</text><text fill="#eeeeee" stroke="none" font-family="Arial" font-size="24px" font-style="normal" font-weight="normal" text-decoration="none" x="0" y="210">UNREGISTERED</text><text fill="#eeeeee" stroke="none" font-family="Arial" font-size="24px" font-style="normal" font-weight="normal" text-decoration="none" x="0" y="240">UNREGISTERED</text><text fill="#eeeeee" stroke="none" font-family="Arial" font-size="24px" font-style="normal" font-weight="normal" text-decoration="none" x="0" y="270">UNREGISTERED</text><text fill="#eeeeee" stroke="none" font-family="Arial" font-size="24px" font-style="normal" font-weight="normal" text-decoration="none" x="0" y="300">UNREGISTERED</text><text fill="#eeeeee" stroke="none" font-family="Arial" font-size="24px" font-style="normal" font-weight="normal" text-decoration="none" x="0" y="330">UNREGISTERED</text><text fill="#eeeeee" stroke="none" font-family="Arial" font-size="24px" font-style="normal" font-weight="normal" text-decoration="none" x="0" y="360">UNREGISTERED</text><text fill="#eeeeee" stroke="none" font-family="Arial" font-size="24px" font-style="normal" font-weight="normal" text-decoration="none" x="0" y="390">UNREGISTERED</text><text fill="#eeeeee" stroke="none" font-family="Arial" font-size="24px" font-style="normal" font-weight="normal" text-decoration="none" x="0" y="420">UNREGISTERED</text><text fill="#eeeeee" stroke="none" font-family="Arial" font-size="24px" font-style="normal" font-weight="normal" text-decoration="none" x="0" y="450">UNREGISTERED</text><text fill="#eeeeee" stroke="none" font-family="Arial" font-size="24px" font-style="normal" font-weight="normal" text-decoration="none" x="0" y="480">UNREGISTERED</text><text fill="#eeeeee" stroke="none" font-family="Arial" font-size="24px" font-style="normal" font-weight="normal" text-decoration="none" x="0" y="510">UNREGISTERED</text><text fill="#eeeeee" stroke="none" font-family="Arial" font-size="24px" font-style="normal" font-weight="normal" text-decoration="none" x="0" y="540">UNREGISTERED</text><text fill="#eeeeee" stroke="none" font-family="Arial" font-size="24px" font-style="normal" font-weight="normal" text-decoration="none" x="0" y="570">UNREGISTERED</text><text fill="#eeeeee" stroke="none" font-family="Arial" font-size="24px" font-style="normal" font-weight="normal" text-decoration="none" x="0" y="600">UNREGISTERED</text><text fill="#eeeeee" stroke="none" font-family="Arial" font-size="24px" font-style="normal" font-weight="normal" text-decoration="none" x="0" y="630">UNREGISTERED</text><text fill="#eeeeee" stroke="none" font-family="Arial" font-size="24px" font-style="normal" font-weight="normal" text-decoration="none" x="0" y="660">UNREGISTERED</text><text fill="#eeeeee" stroke="none" font-family="Arial" font-size="24px" font-style="normal" font-weight="normal" text-decoration="none" x="200" y="0">UNREGISTERED</text><text fill="#eeeeee" stroke="none" font-family="Arial" font-size="24px" font-style="normal" font-weight="normal" text-decoration="none" x="200" y="30">UNREGISTERED</text><text fill="#eeeeee" stroke="none" font-family="Arial" font-size="24px" font-style="normal" font-weight="normal" text-decoration="none" x="200" y="60">UNREGISTERED</text><text fill="#eeeeee" stroke="none" font-family="Arial" font-size="24px" font-style="normal" font-weight="normal" text-decoration="none" x="200" y="90">UNREGISTERED</text><text fill="#eeeeee" stroke="none" font-family="Arial" font-size="24px" font-style="normal" font-weight="normal" text-decoration="none" x="200" y="120">UNREGISTERED</text><text fill="#eeeeee" stroke="none" font-family="Arial" font-size="24px" font-style="normal" font-weight="normal" text-decoration="none" x="200" y="150">UNREGISTERED</text><text fill="#eeeeee" stroke="none" font-family="Arial" font-size="24px" font-style="normal" font-weight="normal" text-decoration="none" x="200" y="180">UNREGISTERED</text><text fill="#eeeeee" stroke="none" font-family="Arial" font-size="24px" font-style="normal" font-weight="normal" text-decoration="none" x="200" y="210">UNREGISTERED</text><text fill="#eeeeee" stroke="none" font-family="Arial" font-size="24px" font-style="normal" font-weight="normal" text-decoration="none" x="200" y="240">UNREGISTERED</text><text fill="#eeeeee" stroke="none" font-family="Arial" font-size="24px" font-style="normal" font-weight="normal" text-decoration="none" x="200" y="270">UNREGISTERED</text><text fill="#eeeeee" stroke="none" font-family="Arial" font-size="24px" font-style="normal" font-weight="normal" text-decoration="none" x="200" y="300">UNREGISTERED</text><text fill="#eeeeee" stroke="none" font-family="Arial" font-size="24px" font-style="normal" font-weight="normal" text-decoration="none" x="200" y="330">UNREGISTERED</text><text fill="#eeeeee" stroke="none" font-family="Arial" font-size="24px" font-style="normal" font-weight="normal" text-decoration="none" x="200" y="360">UNREGISTERED</text><text fill="#eeeeee" stroke="none" font-family="Arial" font-size="24px" font-style="normal" font-weight="normal" text-decoration="none" x="200" y="390">UNREGISTERED</text><text fill="#eeeeee" stroke="none" font-family="Arial" font-size="24px" font-style="normal" font-weight="normal" text-decoration="none" x="200" y="420">UNREGISTERED</text><text fill="#eeeeee" stroke="none" font-family="Arial" font-size="24px" font-style="normal" font-weight="normal" text-decoration="none" x="200" y="450">UNREGISTERED</text><text fill="#eeeeee" stroke="none" font-family="Arial" font-size="24px" font-style="normal" font-weight="normal" text-decoration="none" x="200" y="480">UNREGISTERED</text><text fill="#eeeeee" stroke="none" font-family="Arial" font-size="24px" font-style="normal" font-weight="normal" text-decoration="none" x="200" y="510">UNREGISTERED</text><text fill="#eeeeee" stroke="none" font-family="Arial" font-size="24px" font-style="normal" font-weight="normal" text-decoration="none" x="200" y="540">UNREGISTERED</text><text fill="#eeeeee" stroke="none" font-family="Arial" font-size="24px" font-style="normal" font-weight="normal" text-decoration="none" x="200" y="570">UNREGISTERED</text><text fill="#eeeeee" stroke="none" font-family="Arial" font-size="24px" font-style="normal" font-weight="normal" text-decoration="none" x="200" y="600">UNREGISTERED</text><text fill="#eeeeee" stroke="none" font-family="Arial" font-size="24px" font-style="normal" font-weight="normal" text-decoration="none" x="200" y="630">UNREGISTERED</text><text fill="#eeeeee" stroke="none" font-family="Arial" font-size="24px" font-style="normal" font-weight="normal" text-decoration="none" x="200" y="660">UNREGISTERED</text><text fill="#eeeeee" stroke="none" font-family="Arial" font-size="24px" font-style="normal" font-weight="normal" text-decoration="none" x="400" y="0">UNREGISTERED</text><text fill="#eeeeee" stroke="none" font-family="Arial" font-size="24px" font-style="normal" font-weight="normal" text-decoration="none" x="400" y="30">UNREGISTERED</text><text fill="#eeeeee" stroke="none" font-family="Arial" font-size="24px" font-style="normal" font-weight="normal" text-decoration="none" x="400" y="60">UNREGISTERED</text><text fill="#eeeeee" stroke="none" font-family="Arial" font-size="24px" font-style="normal" font-weight="normal" text-decoration="none" x="400" y="90">UNREGISTERED</text><text fill="#eeeeee" stroke="none" font-family="Arial" font-size="24px" font-style="normal" font-weight="normal" text-decoration="none" x="400" y="120">UNREGISTERED</text><text fill="#eeeeee" stroke="none" font-family="Arial" font-size="24px" font-style="normal" font-weight="normal" text-decoration="none" x="400" y="150">UNREGISTERED</text><text fill="#eeeeee" stroke="none" font-family="Arial" font-size="24px" font-style="normal" font-weight="normal" text-decoration="none" x="400" y="180">UNREGISTERED</text><text fill="#eeeeee" stroke="none" font-family="Arial" font-size="24px" font-style="normal" font-weight="normal" text-decoration="none" x="400" y="210">UNREGISTERED</text><text fill="#eeeeee" stroke="none" font-family="Arial" font-size="24px" font-style="normal" font-weight="normal" text-decoration="none" x="400" y="240">UNREGISTERED</text><text fill="#eeeeee" stroke="none" font-family="Arial" font-size="24px" font-style="normal" font-weight="normal" text-decoration="none" x="400" y="270">UNREGISTERED</text><text fill="#eeeeee" stroke="none" font-family="Arial" font-size="24px" font-style="normal" font-weight="normal" text-decoration="none" x="400" y="300">UNREGISTERED</text><text fill="#eeeeee" stroke="none" font-family="Arial" font-size="24px" font-style="normal" font-weight="normal" text-decoration="none" x="400" y="330">UNREGISTERED</text><text fill="#eeeeee" stroke="none" font-family="Arial" font-size="24px" font-style="normal" font-weight="normal" text-decoration="none" x="400" y="360">UNREGISTERED</text><text fill="#eeeeee" stroke="none" font-family="Arial" font-size="24px" font-style="normal" font-weight="normal" text-decoration="none" x="400" y="390">UNREGISTERED</text><text fill="#eeeeee" stroke="none" font-family="Arial" font-size="24px" font-style="normal" font-weight="normal" text-decoration="none" x="400" y="420">UNREGISTERED</text><text fill="#eeeeee" stroke="none" font-family="Arial" font-size="24px" font-style="normal" font-weight="normal" text-decoration="none" x="400" y="450">UNREGISTERED</text><text fill="#eeeeee" stroke="none" font-family="Arial" font-size="24px" font-style="normal" font-weight="normal" text-decoration="none" x="400" y="480">UNREGISTERED</text><text fill="#eeeeee" stroke="none" font-family="Arial" font-size="24px" font-style="normal" font-weight="normal" text-decoration="none" x="400" y="510">UNREGISTERED</text><text fill="#eeeeee" stroke="none" font-family="Arial" font-size="24px" font-style="normal" font-weight="normal" text-decoration="none" x="400" y="540">UNREGISTERED</text><text fill="#eeeeee" stroke="none" font-family="Arial" font-size="24px" font-style="normal" font-weight="normal" text-decoration="none" x="400" y="570">UNREGISTERED</text><text fill="#eeeeee" stroke="none" font-family="Arial" font-size="24px" font-style="normal" font-weight="normal" text-decoration="none" x="400" y="600">UNREGISTERED</text><text fill="#eeeeee" stroke="none" font-family="Arial" font-size="24px" font-style="normal" font-weight="normal" text-decoration="none" x="400" y="630">UNREGISTERED</text><text fill="#eeeeee" stroke="none" font-family="Arial" font-size="24px" font-style="normal" font-weight="normal" text-decoration="none" x="400" y="660">UNREGISTERED</text><text fill="#eeeeee" stroke="none" font-family="Arial" font-size="24px" font-style="normal" font-weight="normal" text-decoration="none" x="600" y="0">UNREGISTERED</text><text fill="#eeeeee" stroke="none" font-family="Arial" font-size="24px" font-style="normal" font-weight="normal" text-decoration="none" x="600" y="30">UNREGISTERED</text><text fill="#eeeeee" stroke="none" font-family="Arial" font-size="24px" font-style="normal" font-weight="normal" text-decoration="none" x="600" y="60">UNREGISTERED</text><text fill="#eeeeee" stroke="none" font-family="Arial" font-size="24px" font-style="normal" font-weight="normal" text-decoration="none" x="600" y="90">UNREGISTERED</text><text fill="#eeeeee" stroke="none" font-family="Arial" font-size="24px" font-style="normal" font-weight="normal" text-decoration="none" x="600" y="120">UNREGISTERED</text><text fill="#eeeeee" stroke="none" font-family="Arial" font-size="24px" font-style="normal" font-weight="normal" text-decoration="none" x="600" y="150">UNREGISTERED</text><text fill="#eeeeee" stroke="none" font-family="Arial" font-size="24px" font-style="normal" font-weight="normal" text-decoration="none" x="600" y="180">UNREGISTERED</text><text fill="#eeeeee" stroke="none" font-family="Arial" font-size="24px" font-style="normal" font-weight="normal" text-decoration="none" x="600" y="210">UNREGISTERED</text><text fill="#eeeeee" stroke="none" font-family="Arial" font-size="24px" font-style="normal" font-weight="normal" text-decoration="none" x="600" y="240">UNREGISTERED</text><text fill="#eeeeee" stroke="none" font-family="Arial" font-size="24px" font-style="normal" font-weight="normal" text-decoration="none" x="600" y="270">UNREGISTERED</text><text fill="#eeeeee" stroke="none" font-family="Arial" font-size="24px" font-style="normal" font-weight="normal" text-decoration="none" x="600" y="300">UNREGISTERED</text><text fill="#eeeeee" stroke="none" font-family="Arial" font-size="24px" font-style="normal" font-weight="normal" text-decoration="none" x="600" y="330">UNREGISTERED</text><text fill="#eeeeee" stroke="none" font-family="Arial" font-size="24px" font-style="normal" font-weight="normal" text-decoration="none" x="600" y="360">UNREGISTERED</text><text fill="#eeeeee" stroke="none" font-family="Arial" font-size="24px" font-style="normal" font-weight="normal" text-decoration="none" x="600" y="390">UNREGISTERED</text><text fill="#eeeeee" stroke="none" font-family="Arial" font-size="24px" font-style="normal" font-weight="normal" text-decoration="none" x="600" y="420">UNREGISTERED</text><text fill="#eeeeee" stroke="none" font-family="Arial" font-size="24px" font-style="normal" font-weight="normal" text-decoration="none" x="600" y="450">UNREGISTERED</text><text fill="#eeeeee" stroke="none" font-family="Arial" font-size="24px" font-style="normal" font-weight="normal" text-decoration="none" x="600" y="480">UNREGISTERED</text><text fill="#eeeeee" stroke="none" font-family="Arial" font-size="24px" font-style="normal" font-weight="normal" text-decoration="none" x="600" y="510">UNREGISTERED</text><text fill="#eeeeee" stroke="none" font-family="Arial" font-size="24px" font-style="normal" font-weight="normal" text-decoration="none" x="600" y="540">UNREGISTERED</text><text fill="#eeeeee" stroke="none" font-family="Arial" font-size="24px" font-style="normal" font-weight="normal" text-decoration="none" x="600" y="570">UNREGISTERED</text><text fill="#eeeeee" stroke="none" font-family="Arial" font-size="24px" font-style="normal" font-weight="normal" text-decoration="none" x="600" y="600">UNREGISTERED</text><text fill="#eeeeee" stroke="none" font-family="Arial" font-size="24px" font-style="normal" font-weight="normal" text-decoration="none" x="600" y="630">UNREGISTERED</text><text fill="#eeeeee" stroke="none" font-family="Arial" font-size="24px" font-style="normal" font-weight="normal" text-decoration="none" x="600" y="660">UNREGISTERED</text><text fill="#eeeeee" stroke="none" font-family="Arial" font-size="24px" font-style="normal" font-weight="normal" text-decoration="none" x="800" y="0">UNREGISTERED</text><text fill="#eeeeee" stroke="none" font-family="Arial" font-size="24px" font-style="normal" font-weight="normal" text-decoration="none" x="800" y="30">UNREGISTERED</text><text fill="#eeeeee" stroke="none" font-family="Arial" font-size="24px" font-style="normal" font-weight="normal" text-decoration="none" x="800" y="60">UNREGISTERED</text><text fill="#eeeeee" stroke="none" font-family="Arial" font-size="24px" font-style="normal" font-weight="normal" text-decoration="none" x="800" y="90">UNREGISTERED</text><text fill="#eeeeee" stroke="none" font-family="Arial" font-size="24px" font-style="normal" font-weight="normal" text-decoration="none" x="800" y="120">UNREGISTERED</text><text fill="#eeeeee" stroke="none" font-family="Arial" font-size="24px" font-style="normal" font-weight="normal" text-decoration="none" x="800" y="150">UNREGISTERED</text><text fill="#eeeeee" stroke="none" font-family="Arial" font-size="24px" font-style="normal" font-weight="normal" text-decoration="none" x="800" y="180">UNREGISTERED</text><text fill="#eeeeee" stroke="none" font-family="Arial" font-size="24px" font-style="normal" font-weight="normal" text-decoration="none" x="800" y="210">UNREGISTERED</text><text fill="#eeeeee" stroke="none" font-family="Arial" font-size="24px" font-style="normal" font-weight="normal" text-decoration="none" x="800" y="240">UNREGISTERED</text><text fill="#eeeeee" stroke="none" font-family="Arial" font-size="24px" font-style="normal" font-weight="normal" text-decoration="none" x="800" y="270">UNREGISTERED</text><text fill="#eeeeee" stroke="none" font-family="Arial" font-size="24px" font-style="normal" font-weight="normal" text-decoration="none" x="800" y="300">UNREGISTERED</text><text fill="#eeeeee" stroke="none" font-family="Arial" font-size="24px" font-style="normal" font-weight="normal" text-decoration="none" x="800" y="330">UNREGISTERED</text><text fill="#eeeeee" stroke="none" font-family="Arial" font-size="24px" font-style="normal" font-weight="normal" text-decoration="none" x="800" y="360">UNREGISTERED</text><text fill="#eeeeee" stroke="none" font-family="Arial" font-size="24px" font-style="normal" font-weight="normal" text-decoration="none" x="800" y="390">UNREGISTERED</text><text fill="#eeeeee" stroke="none" font-family="Arial" font-size="24px" font-style="normal" font-weight="normal" text-decoration="none" x="800" y="420">UNREGISTERED</text><text fill="#eeeeee" stroke="none" font-family="Arial" font-size="24px" font-style="normal" font-weight="normal" text-decoration="none" x="800" y="450">UNREGISTERED</text><text fill="#eeeeee" stroke="none" font-family="Arial" font-size="24px" font-style="normal" font-weight="normal" text-decoration="none" x="800" y="480">UNREGISTERED</text><text fill="#eeeeee" stroke="none" font-family="Arial" font-size="24px" font-style="normal" font-weight="normal" text-decoration="none" x="800" y="510">UNREGISTERED</text><text fill="#eeeeee" stroke="none" font-family="Arial" font-size="24px" font-style="normal" font-weight="normal" text-decoration="none" x="800" y="540">UNREGISTERED</text><text fill="#eeeeee" stroke="none" font-family="Arial" font-size="24px" font-style="normal" font-weight="normal" text-decoration="none" x="800" y="570">UNREGISTERED</text><text fill="#eeeeee" stroke="none" font-family="Arial" font-size="24px" font-style="normal" font-weight="normal" text-decoration="none" x="800" y="600">UNREGISTERED</text><text fill="#eeeeee" stroke="none" font-family="Arial" font-size="24px" font-style="normal" font-weight="normal" text-decoration="none" x="800" y="630">UNREGISTERED</text><text fill="#eeeeee" stroke="none" font-family="Arial" font-size="24px" font-style="normal" font-weight="normal" text-decoration="none" x="800" y="660">UNREGISTERED</text><g transform="translate(-78,-94) scale(1,1)"><path fill="#C0C0C0" stroke="none" d="M 95 136.5 C 95 131.2532944 99.2532944 127 104.5 127 C 109.7467056 127 114 131.2532944 114 136.5 C 114 141.7467056 109.7467056 146 104.5 146 C 99.2532944 146 95 141.7467056 95 136.5 Z" opacity="0.2"/></g><g transform="translate(-78,-94) scale(1,1)"><path fill="#000000" stroke="none" d="M 88 129.5 C 88 124.2532944 92.2532944 120 97.5 120 C 102.7467056 120 107 124.2532944 107 129.5 C 107 134.7467056 102.7467056 139 97.5 139 C 92.2532944 139 88 134.7467056 88 129.5 Z"/></g><g transform="translate(-78,-94) scale(1,1)"><path fill="#C0C0C0" stroke="none" d="M 281 111 L 590 111 Q 600 111 600 121 L 600 141 Q 600 151 590 151 L 281 151 Q 271 151 271 141 L 271 121 Q 271 111 281 111 Z" opacity="0.2"/></g><g transform="translate(-78,-94) scale(1,1)"><path fill="#ffffff" stroke="none" d="M 274 104 L 583 104 Q 593 104 593 114 L 593 134 Q 593 144 583 144 L 274 144 Q 264 144 264 134 L 264 114 Q 264 104 274 104 Z"/></g><g transform="translate(-78,-94) scale(1,1)"><path fill="none" stroke="#000000" d="M 274 104 L 583 104 Q 593 104 593 114 L 593 134 Q 593 144 583 144 L 274 144 Q 264 144 264 134 L 264 114 Q 264 104 274 104 Z" stroke-miterlimit="10"/></g><g transform="translate(-78,-94) scale(1,1)"><g><path fill="none" stroke="none"/><text fill="#000000" stroke="none" font-family="Arial" font-size="13px" font-style="normal" font-weight="bold" text-decoration="none" x="270.668701171875" y="122">Chama o método DisponibilizaHorariosDisponiveis</text></g></g><g transform="translate(-78,-94) scale(1,1)"><path fill="none" stroke="#000000" d="M 108 129 L 263 126" stroke-miterlimit="10"/></g><g transform="translate(-78,-94) scale(1,1)"><path fill="none" stroke="#000000" d="M 252.92068740735917 130.40538961498663 L 263 126 L 252.75776884551885 121.98793058657056" stroke-miterlimit="10"/></g><g transform="translate(-78,-94) scale(1,1)"><path fill="#C0C0C0" stroke="none" d="M 769 111 L 1015 111 Q 1025 111 1025 121 L 1025 141 Q 1025 151 1015 151 L 769 151 Q 759 151 759 141 L 759 121 Q 759 111 769 111 Z" opacity="0.2"/></g><g transform="translate(-78,-94) scale(1,1)"><path fill="#ffffff" stroke="none" d="M 762 104 L 1008 104 Q 1018 104 1018 114 L 1018 134 Q 1018 144 1008 144 L 762 144 Q 752 144 752 134 L 752 114 Q 752 104 762 104 Z"/></g><g transform="translate(-78,-94) scale(1,1)"><path fill="none" stroke="#000000" d="M 762 104 L 1008 104 Q 1018 104 1018 114 L 1018 134 Q 1018 144 1008 144 L 762 144 Q 752 144 752 134 L 752 114 Q 752 104 762 104 Z" stroke-miterlimit="10"/></g><g transform="translate(-78,-94) scale(1,1)"><g><path fill="none" stroke="none"/><text fill="#000000" stroke="none" font-family="Arial" font-size="13px" font-style="normal" font-weight="bold" text-decoration="none" x="760.052734375" y="122">Cria um novo objeto do tipo Proprietario</text></g></g><g transform="translate(-78,-94) scale(1,1)"><path fill="none" stroke="#000000" d="M 594 124 L 751 124" stroke-miterlimit="10"/></g><g transform="translate(-78,-94) scale(1,1)"><path fill="none" stroke="#000000" d="M 740.8373251423759 128.209517756016 L 751 124 L 740.8373251423758 119.79048224398402" stroke-miterlimit="10"/></g><g transform="translate(-78,-94) scale(1,1)"><path fill="#C0C0C0" stroke="none" d="M 809 247 L 970 247 Q 980 247 980 257 L 980 277 Q 980 287 970 287 L 809 287 Q 799 287 799 277 L 799 257 Q 799 247 809 247 Z" opacity="0.2"/></g><g transform="translate(-78,-94) scale(1,1)"><path fill="#ffffff" stroke="none" d="M 802 240 L 963 240 Q 973 240 973 250 L 973 270 Q 973 280 963 280 L 802 280 Q 792 280 792 270 L 792 250 Q 792 240 802 240 Z"/></g><g transform="translate(-78,-94) scale(1,1)"><path fill="none" stroke="#000000" d="M 802 240 L 963 240 Q 973 240 973 250 L 973 270 Q 973 280 963 280 L 802 280 Q 792 280 792 270 L 792 250 Q 792 240 802 240 Z" stroke-miterlimit="10"/></g><g transform="translate(-78,-94) scale(1,1)"><g><path fill="none" stroke="none"/><text fill="#000000" stroke="none" font-family="Arial" font-size="13px" font-style="normal" font-weight="bold" text-decoration="none" x="797.6318359375" y="258">Consulta o banco de dados</text></g></g><g transform="translate(-78,-94) scale(1,1)"><path fill="none" stroke="#000000" d="M 885 145 L 882 239" stroke-miterlimit="10"/></g><g transform="translate(-78,-94) scale(1,1)"><path fill="none" stroke="#000000" d="M 878.1168000645071 228.70821889753833 L 882 239 L 886.531551200948 228.97677478487154" stroke-miterlimit="10"/></g><g transform="translate(-78,-94) scale(1,1)"><path fill="#C0C0C0" stroke="none" d="M 353 247 L 523 247 Q 533 247 533 257 L 533 277 Q 533 287 523 287 L 353 287 Q 343 287 343 277 L 343 257 Q 343 247 353 247 Z" opacity="0.2"/></g><g transform="translate(-78,-94) scale(1,1)"><path fill="#ffffff" stroke="none" d="M 346 240 L 516 240 Q 526 240 526 250 L 526 270 Q 526 280 516 280 L 346 280 Q 336 280 336 270 L 336 250 Q 336 240 346 240 Z"/></g><g transform="translate(-78,-94) scale(1,1)"><path fill="none" stroke="#000000" d="M 346 240 L 516 240 Q 526 240 526 250 L 526 270 Q 526 280 516 280 L 346 280 Q 336 280 336 270 L 336 250 Q 336 240 346 240 Z" stroke-miterlimit="10"/></g><g transform="translate(-78,-94) scale(1,1)"><g><path fill="none" stroke="none"/><text fill="#000000" stroke="none" font-family="Arial" font-size="13px" font-style="normal" font-weight="bold" text-decoration="none" x="343.60546875" y="258">Popula o objeto Proprietario</text></g></g><g transform="translate(-78,-94) scale(1,1)"><path fill="none" stroke="#000000" d="M 791 260 L 527 260" stroke-miterlimit="10"/></g><g transform="translate(-78,-94) scale(1,1)"><path fill="none" stroke="#000000" d="M 537.1626748576241 255.790482243984 L 527 260 L 537.1626748576241 264.209517756016" stroke-miterlimit="10"/></g><g transform="translate(-78,-94) scale(1,1)"><path fill="#C0C0C0" stroke="none" d="M 169 463 L 713 463 Q 723 463 723 473 L 723 493 Q 723 503 713 503 L 169 503 Q 159 503 159 493 L 159 473 Q 159 463 169 463 Z" opacity="0.2"/></g><g transform="translate(-78,-94) scale(1,1)"><path fill="#ffffff" stroke="none" d="M 162 456 L 706 456 Q 716 456 716 466 L 716 486 Q 716 496 706 496 L 162 496 Q 152 496 152 486 L 152 466 Q 152 456 162 456 Z"/></g><g transform="translate(-78,-94) scale(1,1)"><path fill="none" stroke="#000000" d="M 162 456 L 706 456 Q 716 456 716 466 L 716 486 Q 716 496 706 496 L 162 496 Q 152 496 152 486 L 152 466 Q 152 456 162 456 Z" stroke-miterlimit="10"/></g><g transform="translate(-78,-94) scale(1,1)"><g><path fill="none" stroke="none"/><text fill="#000000" stroke="none" font-family="Arial" font-size="13px" font-style="normal" font-weight="bold" text-decoration="none" x="161.28564453125" y="474">Consulta no banco de dados os horários especificos de acordo com a data especificada</text></g></g><g transform="translate(-78,-94) scale(1,1)"><path fill="none" stroke="#000000" d="M 431 281 L 434 455" stroke-miterlimit="10"/></g><g transform="translate(-78,-94) scale(1,1)"><path fill="none" stroke="#000000" d="M 429.6159152813612 444.9114024175906 L 434 455 L 438.03369972933814 444.76626820297025" stroke-miterlimit="10"/></g><g transform="translate(-78,-94) scale(1,1)"><path fill="#C0C0C0" stroke="none" d="M 249 735 L 623 735 Q 633 735 633 745 L 633 765 Q 633 775 623 775 L 249 775 Q 239 775 239 765 L 239 745 Q 239 735 249 735 Z" opacity="0.2"/></g><g transform="translate(-78,-94) scale(1,1)"><path fill="#ffffff" stroke="none" d="M 242 728 L 616 728 Q 626 728 626 738 L 626 758 Q 626 768 616 768 L 242 768 Q 232 768 232 758 L 232 738 Q 232 728 242 728 Z"/></g><g transform="translate(-78,-94) scale(1,1)"><path fill="none" stroke="#000000" d="M 242 728 L 616 728 Q 626 728 626 738 L 626 758 Q 626 768 616 768 L 242 768 Q 232 768 232 758 L 232 738 Q 232 728 242 728 Z" stroke-miterlimit="10"/></g><g transform="translate(-78,-94) scale(1,1)"><g><path fill="none" stroke="none"/><text fill="#000000" stroke="none" font-family="Arial" font-size="13px" font-style="normal" font-weight="bold" text-decoration="none" x="237.94189453125" y="746">retorna da função um json com todos os horários disponíveis</text></g></g><g transform="translate(-78,-94) scale(1,1)"><path fill="none" stroke="#000000" d="M 434 497 L 429 727" stroke-miterlimit="10"/></g><g transform="translate(-78,-94) scale(1,1)"><path fill="none" stroke="#000000" d="M 425.0123521078249 716.7482360401718 L 429 727 L 433.42939894957703 716.9312153193404" stroke-miterlimit="10"/></g><g transform="translate(-78,-94) scale(1,1)"><path fill="#C0C0C0" stroke="none" d="M 935 747.5 C 935 740.59644 940.59644 735 947.5 735 C 954.40356 735 960 740.59644 960 747.5 C 960 754.40356 954.40356 760 947.5 760 C 940.59644 760 935 754.40356 935 747.5 Z" opacity="0.2"/></g><g transform="translate(-78,-94) scale(1,1)"><path fill="none" stroke="#000000" d="M 928 740.5 C 928 733.59644 933.59644 728 940.5 728 C 947.40356 728 953 733.59644 953 740.5 C 953 747.40356 947.40356 753 940.5 753 C 933.59644 753 928 747.40356 928 740.5 Z" stroke-miterlimit="10"/></g><g transform="translate(-78,-94) scale(1,1)"><path fill="#000000" stroke="none" d="M 933 740.5 C 933 736.357864 936.357864 733 940.5 733 C 944.642136 733 948 736.357864 948 740.5 C 948 744.642136 944.642136 748 940.5 748 C 936.357864 748 933 744.642136 933 740.5 Z"/></g><g transform="translate(-78,-94) scale(1,1)"><path fill="none" stroke="#000000" d="M 627 745 L 927 740" stroke-miterlimit="10"/></g><g transform="translate(-78,-94) scale(1,1)"><path fill="none" stroke="#000000" d="M 916.9088852180466 744.3782876170303 L 927 740 L 916.7685874439617 735.9604211719362" stroke-miterlimit="10"/></g></g></svg>