<svg version="1.1" xmlns="http://www.w3.org/2000/svg" xmlns:xlink="http://www.w3.org/1999/xlink" width="711" height="611"><defs/><g><text fill="#eeeeee" stroke="none" font-family="Arial" font-size="24px" font-style="normal" font-weight="normal" text-decoration="none" x="0" y="0">UNREGISTERED</text><text fill="#eeeeee" stroke="none" font-family="Arial" font-size="24px" font-style="normal" font-weight="normal" text-decoration="none" x="0" y="30">UNREGISTERED</text><text fill="#eeeeee" stroke="none" font-family="Arial" font-size="24px" font-style="normal" font-weight="normal" text-decoration="none" x="0" y="60">UNREGISTERED</text><text fill="#eeeeee" stroke="none" font-family="Arial" font-size="24px" font-style="normal" font-weight="normal" text-decoration="none" x="0" y="90">UNREGISTERED</text><text fill="#eeeeee" stroke="none" font-family="Arial" font-size="24px" font-style="normal" font-weight="normal" text-decoration="none" x="0" y="120">UNREGISTERED</text><text fill="#eeeeee" stroke="none" font-family="Arial" font-size="24px" font-style="normal" font-weight="normal" text-decoration="none" x="0" y="150">UNREGISTERED</text><text fill="#eeeeee" stroke="none" font-family="Arial" font-size="24px" font-style="normal" font-weight="normal" text-decoration="none" x="0" y="180">UNREGISTERED</text><text fill="#eeeeee" stroke="none" font-family="Arial" font-size="24px" font-style="normal" font-weight="normal" text-decoration="none" x="0" y="210">UNREGISTERED</text><text fill="#eeeeee" stroke="none" font-family="Arial" font-size="24px" font-style="normal" font-weight="normal" text-decoration="none" x="0" y="240">UNREGISTERED</text><text fill="#eeeeee" stroke="none" font-family="Arial" font-size="24px" font-style="normal" font-weight="normal" text-decoration="none" x="0" y="270">UNREGISTERED</text><text fill="#eeeeee" stroke="none" font-family="Arial" font-size="24px" font-style="normal" font-weight="normal" text-decoration="none" x="0" y="300">UNREGISTERED</text><text fill="#eeeeee" stroke="none" font-family="Arial" font-size="24px" font-style="normal" font-weight="normal" text-decoration="none" x="0" y="330">UNREGISTERED</text><text fill="#eeeeee" stroke="none" font-family="Arial" font-size="24px" font-style="normal" font-weight="normal" text-decoration="none" x="0" y="360">UNREGISTERED</text><text fill="#eeeeee" stroke="none" font-family="Arial" font-size="24px" font-style="normal" font-weight="normal" text-decoration="none" x="0" y="390">UNREGISTERED</text><text fill="#eeeeee" stroke="none" font-family="Arial" font-size="24px" font-style="normal" font-weight="normal" text-decoration="none" x="0" y="420">UNREGISTERED</text><text fill="#eeeeee" stroke="none" font-family="Arial" font-size="24px" font-style="normal" font-weight="normal" text-decoration="none" x="0" y="450">UNREGISTERED</text><text fill="#eeeeee" stroke="none" font-family="Arial" font-size="24px" font-style="normal" font-weight="normal" text-decoration="none" x="0" y="480">UNREGISTERED</text><text fill="#eeeeee" stroke="none" font-family="Arial" font-size="24px" font-style="normal" font-weight="normal" text-decoration="none" x="0" y="510">UNREGISTERED</text><text fill="#eeeeee" stroke="none" font-family="Arial" font-size="24px" font-style="normal" font-weight="normal" text-decoration="none" x="0" y="540">UNREGISTERED</text><text fill="#eeeeee" stroke="none" font-family="Arial" font-size="24px" font-style="normal" font-weight="normal" text-decoration="none" x="0" y="570">UNREGISTERED</text><text fill="#eeeeee" stroke="none" font-family="Arial" font-size="24px" font-style="normal" font-weight="normal" text-decoration="none" x="0" y="600">UNREGISTERED</text><text fill="#eeeeee" stroke="none" font-family="Arial" font-size="24px" font-style="normal" font-weight="normal" text-decoration="none" x="200" y="0">UNREGISTERED</text><text fill="#eeeeee" stroke="none" font-family="Arial" font-size="24px" font-style="normal" font-weight="normal" text-decoration="none" x="200" y="30">UNREGISTERED</text><text fill="#eeeeee" stroke="none" font-family="Arial" font-size="24px" font-style="normal" font-weight="normal" text-decoration="none" x="200" y="60">UNREGISTERED</text><text fill="#eeeeee" stroke="none" font-family="Arial" font-size="24px" font-style="normal" font-weight="normal" text-decoration="none" x="200" y="90">UNREGISTERED</text><text fill="#eeeeee" stroke="none" font-family="Arial" font-size="24px" font-style="normal" font-weight="normal" text-decoration="none" x="200" y="120">UNREGISTERED</text><text fill="#eeeeee" stroke="none" font-family="Arial" font-size="24px" font-style="normal" font-weight="normal" text-decoration="none" x="200" y="150">UNREGISTERED</text><text fill="#eeeeee" stroke="none" font-family="Arial" font-size="24px" font-style="normal" font-weight="normal" text-decoration="none" x="200" y="180">UNREGISTERED</text><text fill="#eeeeee" stroke="none" font-family="Arial" font-size="24px" font-style="normal" font-weight="normal" text-decoration="none" x="200" y="210">UNREGISTERED</text><text fill="#eeeeee" stroke="none" font-family="Arial" font-size="24px" font-style="normal" font-weight="normal" text-decoration="none" x="200" y="240">UNREGISTERED</text><text fill="#eeeeee" stroke="none" font-family="Arial" font-size="24px" font-style="normal" font-weight="normal" text-decoration="none" x="200" y="270">UNREGISTERED</text><text fill="#eeeeee" stroke="none" font-family="Arial" font-size="24px" font-style="normal" font-weight="normal" text-decoration="none" x="200" y="300">UNREGISTERED</text><text fill="#eeeeee" stroke="none" font-family="Arial" font-size="24px" font-style="normal" font-weight="normal" text-decoration="none" x="200" y="330">UNREGISTERED</text><text fill="#eeeeee" stroke="none" font-family="Arial" font-size="24px" font-style="normal" font-weight="normal" text-decoration="none" x="200" y="360">UNREGISTERED</text><text fill="#eeeeee" stroke="none" font-family="Arial" font-size="24px" font-style="normal" font-weight="normal" text-decoration="none" x="200" y="390">UNREGISTERED</text><text fill="#eeeeee" stroke="none" font-family="Arial" font-size="24px" font-style="normal" font-weight="normal" text-decoration="none" x="200" y="420">UNREGISTERED</text><text fill="#eeeeee" stroke="none" font-family="Arial" font-size="24px" font-style="normal" font-weight="normal" text-decoration="none" x="200" y="450">UNREGISTERED</text><text fill="#eeeeee" stroke="none" font-family="Arial" font-size="24px" font-style="normal" font-weight="normal" text-decoration="none" x="200" y="480">UNREGISTERED</text><text fill="#eeeeee" stroke="none" font-family="Arial" font-size="24px" font-style="normal" font-weight="normal" text-decoration="none" x="200" y="510">UNREGISTERED</text><text fill="#eeeeee" stroke="none" font-family="Arial" font-size="24px" font-style="normal" font-weight="normal" text-decoration="none" x="200" y="540">UNREGISTERED</text><text fill="#eeeeee" stroke="none" font-family="Arial" font-size="24px" font-style="normal" font-weight="normal" text-decoration="none" x="200" y="570">UNREGISTERED</text><text fill="#eeeeee" stroke="none" font-family="Arial" font-size="24px" font-style="normal" font-weight="normal" text-decoration="none" x="200" y="600">UNREGISTERED</text><text fill="#eeeeee" stroke="none" font-family="Arial" font-size="24px" font-style="normal" font-weight="normal" text-decoration="none" x="400" y="0">UNREGISTERED</text><text fill="#eeeeee" stroke="none" font-family="Arial" font-size="24px" font-style="normal" font-weight="normal" text-decoration="none" x="400" y="30">UNREGISTERED</text><text fill="#eeeeee" stroke="none" font-family="Arial" font-size="24px" font-style="normal" font-weight="normal" text-decoration="none" x="400" y="60">UNREGISTERED</text><text fill="#eeeeee" stroke="none" font-family="Arial" font-size="24px" font-style="normal" font-weight="normal" text-decoration="none" x="400" y="90">UNREGISTERED</text><text fill="#eeeeee" stroke="none" font-family="Arial" font-size="24px" font-style="normal" font-weight="normal" text-decoration="none" x="400" y="120">UNREGISTERED</text><text fill="#eeeeee" stroke="none" font-family="Arial" font-size="24px" font-style="normal" font-weight="normal" text-decoration="none" x="400" y="150">UNREGISTERED</text><text fill="#eeeeee" stroke="none" font-family="Arial" font-size="24px" font-style="normal" font-weight="normal" text-decoration="none" x="400" y="180">UNREGISTERED</text><text fill="#eeeeee" stroke="none" font-family="Arial" font-size="24px" font-style="normal" font-weight="normal" text-decoration="none" x="400" y="210">UNREGISTERED</text><text fill="#eeeeee" stroke="none" font-family="Arial" font-size="24px" font-style="normal" font-weight="normal" text-decoration="none" x="400" y="240">UNREGISTERED</text><text fill="#eeeeee" stroke="none" font-family="Arial" font-size="24px" font-style="normal" font-weight="normal" text-decoration="none" x="400" y="270">UNREGISTERED</text><text fill="#eeeeee" stroke="none" font-family="Arial" font-size="24px" font-style="normal" font-weight="normal" text-decoration="none" x="400" y="300">UNREGISTERED</text><text fill="#eeeeee" stroke="none" font-family="Arial" font-size="24px" font-style="normal" font-weight="normal" text-decoration="none" x="400" y="330">UNREGISTERED</text><text fill="#eeeeee" stroke="none" font-family="Arial" font-size="24px" font-style="normal" font-weight="normal" text-decoration="none" x="400" y="360">UNREGISTERED</text><text fill="#eeeeee" stroke="none" font-family="Arial" font-size="24px" font-style="normal" font-weight="normal" text-decoration="none" x="400" y="390">UNREGISTERED</text><text fill="#eeeeee" stroke="none" font-family="Arial" font-size="24px" font-style="normal" font-weight="normal" text-decoration="none" x="400" y="420">UNREGISTERED</text><text fill="#eeeeee" stroke="none" font-family="Arial" font-size="24px" font-style="normal" font-weight="normal" text-decoration="none" x="400" y="450">UNREGISTERED</text><text fill="#eeeeee" stroke="none" font-family="Arial" font-size="24px" font-style="normal" font-weight="normal" text-decoration="none" x="400" y="480">UNREGISTERED</text><text fill="#eeeeee" stroke="none" font-family="Arial" font-size="24px" font-style="normal" font-weight="normal" text-decoration="none" x="400" y="510">UNREGISTERED</text><text fill="#eeeeee" stroke="none" font-family="Arial" font-size="24px" font-style="normal" font-weight="normal" text-decoration="none" x="400" y="540">UNREGISTERED</text><text fill="#eeeeee" stroke="none" font-family="Arial" font-size="24px" font-style="normal" font-weight="normal" text-decoration="none" x="400" y="570">UNREGISTERED</text><text fill="#eeeeee" stroke="none" font-family="Arial" font-size="24px" font-style="normal" font-weight="normal" text-decoration="none" x="400" y="600">UNREGISTERED</text><text fill="#eeeeee" stroke="none" font-family="Arial" font-size="24px" font-style="normal" font-weight="normal" text-decoration="none" x="600" y="0">UNREGISTERED</text><text fill="#eeeeee" stroke="none" font-family="Arial" font-size="24px" font-style="normal" font-weight="normal" text-decoration="none" x="600" y="30">UNREGISTERED</text><text fill="#eeeeee" stroke="none" font-family="Arial" font-size="24px" font-style="normal" font-weight="normal" text-decoration="none" x="600" y="60">UNREGISTERED</text><text fill="#eeeeee" stroke="none" font-family="Arial" font-size="24px" font-style="normal" font-weight="normal" text-decoration="none" x="600" y="90">UNREGISTERED</text><text fill="#eeeeee" stroke="none" font-family="Arial" font-size="24px" font-style="normal" font-weight="normal" text-decoration="none" x="600" y="120">UNREGISTERED</text><text fill="#eeeeee" stroke="none" font-family="Arial" font-size="24px" font-style="normal" font-weight="normal" text-decoration="none" x="600" y="150">UNREGISTERED</text><text fill="#eeeeee" stroke="none" font-family="Arial" font-size="24px" font-style="normal" font-weight="normal" text-decoration="none" x="600" y="180">UNREGISTERED</text><text fill="#eeeeee" stroke="none" font-family="Arial" font-size="24px" font-style="normal" font-weight="normal" text-decoration="none" x="600" y="210">UNREGISTERED</text><text fill="#eeeeee" stroke="none" font-family="Arial" font-size="24px" font-style="normal" font-weight="normal" text-decoration="none" x="600" y="240">UNREGISTERED</text><text fill="#eeeeee" stroke="none" font-family="Arial" font-size="24px" font-style="normal" font-weight="normal" text-decoration="none" x="600" y="270">UNREGISTERED</text><text fill="#eeeeee" stroke="none" font-family="Arial" font-size="24px" font-style="normal" font-weight="normal" text-decoration="none" x="600" y="300">UNREGISTERED</text><text fill="#eeeeee" stroke="none" font-family="Arial" font-size="24px" font-style="normal" font-weight="normal" text-decoration="none" x="600" y="330">UNREGISTERED</text><text fill="#eeeeee" stroke="none" font-family="Arial" font-size="24px" font-style="normal" font-weight="normal" text-decoration="none" x="600" y="360">UNREGISTERED</text><text fill="#eeeeee" stroke="none" font-family="Arial" font-size="24px" font-style="normal" font-weight="normal" text-decoration="none" x="600" y="390">UNREGISTERED</text><text fill="#eeeeee" stroke="none" font-family="Arial" font-size="24px" font-style="normal" font-weight="normal" text-decoration="none" x="600" y="420">UNREGISTERED</text><text fill="#eeeeee" stroke="none" font-family="Arial" font-size="24px" font-style="normal" font-weight="normal" text-decoration="none" x="600" y="450">UNREGISTERED</text><text fill="#eeeeee" stroke="none" font-family="Arial" font-size="24px" font-style="normal" font-weight="normal" text-decoration="none" x="600" y="480">UNREGISTERED</text><text fill="#eeeeee" stroke="none" font-family="Arial" font-size="24px" font-style="normal" font-weight="normal" text-decoration="none" x="600" y="510">UNREGISTERED</text><text fill="#eeeeee" stroke="none" font-family="Arial" font-size="24px" font-style="normal" font-weight="normal" text-decoration="none" x="600" y="540">UNREGISTERED</text><text fill="#eeeeee" stroke="none" font-family="Arial" font-size="24px" font-style="normal" font-weight="normal" text-decoration="none" x="600" y="570">UNREGISTERED</text><text fill="#eeeeee" stroke="none" font-family="Arial" font-size="24px" font-style="normal" font-weight="normal" text-decoration="none" x="600" y="600">UNREGISTERED</text><g transform="translate(10,-22) scale(1,1)"><path fill="none" stroke="#000000" d="M 0 32 L 691 32 L 691 623 L 0 623 L 0 32" stroke-miterlimit="10"/></g><g transform="translate(10,-22) scale(1,1)"><path fill="#ffffff" stroke="none" d="M 0 32 L 0 54 L 193.759765625 54 L 204.759765625 43 L 204.759765625 32 L 0 32"/></g><g transform="translate(10,-22) scale(1,1)"><path fill="none" stroke="#000000" d="M 0 32 L 0 54 L 193.759765625 54 L 204.759765625 43 L 204.759765625 32 L 0 32 L 0 32" stroke-miterlimit="10"/></g><g transform="translate(10,-22) scale(1,1)"><g><path fill="none" stroke="none"/><text fill="#000000" stroke="none" font-family="Arial" font-size="13px" font-style="normal" font-weight="normal" text-decoration="none" x="24.72998046875" y="48">DS (GerenciaAgendamento)</text></g></g><g transform="translate(10,-22) scale(1,1)"><g><path fill="none" stroke="none"/><text fill="#000000" stroke="none" font-family="Arial" font-size="13px" font-style="normal" font-weight="bold" text-decoration="none" x="4.279541015625" y="48">sd</text></g></g><g transform="translate(10,-22) scale(1,1)"><rect fill="#C0C0C0" stroke="none" x="271" y="47" width="211.17529296875" height="39" opacity="0.2"/></g><g transform="translate(10,-22) scale(1,1)"><rect fill="#ffffff" stroke="none" x="264" y="40" width="211.17529296875" height="39"/></g><g transform="translate(10,-22) scale(1,1)"><path fill="none" stroke="#000000" d="M 264 40 L 475.17529296875 40 L 475.17529296875 79 L 264 79 L 264 40 Z Z" stroke-miterlimit="10"/></g><g transform="translate(10,-22) scale(1,1)"><g><path fill="none" stroke="none"/><text fill="#000000" stroke="none" font-family="Arial" font-size="13px" font-style="normal" font-weight="bold" text-decoration="none" x="273.5" y="58">Classe: GerenciaAgendamento</text></g></g><g transform="translate(10,-22) scale(1,1)"><path fill="none" stroke="#000000" d="M 370.5 80 L 370.5 542" stroke-miterlimit="10" stroke-dasharray="3"/></g><g transform="translate(10,-22) scale(1,1)"><rect fill="#C0C0C0" stroke="none" x="543" y="47" width="114.37353515625" height="39" opacity="0.2"/></g><g transform="translate(10,-22) scale(1,1)"><rect fill="#ffffff" stroke="none" x="536" y="40" width="114.37353515625" height="39"/></g><g transform="translate(10,-22) scale(1,1)"><path fill="none" stroke="#000000" d="M 536 40 L 650.37353515625 40 L 650.37353515625 79 L 536 79 L 536 40 Z Z" stroke-miterlimit="10"/></g><g transform="translate(10,-22) scale(1,1)"><g><path fill="none" stroke="none"/><text fill="#000000" stroke="none" font-family="Arial" font-size="13px" font-style="normal" font-weight="bold" text-decoration="none" x="545.5" y="58">Classe: Quadra</text></g></g><g transform="translate(10,-22) scale(1,1)"><path fill="none" stroke="#000000" d="M 594.5 80 L 594.5 531" stroke-miterlimit="10" stroke-dasharray="3"/></g><g transform="translate(10,-22) scale(1,1)"><path fill="#ffffff" stroke="none" d="M 82.0804305752841 47.3 C 82.0804305752841 43.82060576 84.95883229746592 41 88.509521484375 41 C 92.06021067128408 41 94.9386123934659 43.82060576 94.9386123934659 47.3 C 94.9386123934659 50.779394239999995 92.06021067128408 53.6 88.509521484375 53.6 C 84.95883229746592 53.6 82.0804305752841 50.779394239999995 82.0804305752841 47.3 Z"/></g><g transform="translate(10,-22) scale(1,1)"><path fill="none" stroke="#000000" d="M 82.0804305752841 47.3 C 82.0804305752841 43.82060576 84.95883229746592 41 88.509521484375 41 C 92.06021067128408 41 94.9386123934659 43.82060576 94.9386123934659 47.3 C 94.9386123934659 50.779394239999995 92.06021067128408 53.6 88.509521484375 53.6 C 84.95883229746592 53.6 82.0804305752841 50.779394239999995 82.0804305752841 47.3 Z" stroke-miterlimit="10"/></g><g transform="translate(10,-22) scale(1,1)"><path fill="none" stroke="#000000" d="M 88.509521484375 53.6 L 88.509521484375 66.4" stroke-miterlimit="10"/></g><g transform="translate(10,-22) scale(1,1)"><path fill="none" stroke="#000000" d="M 81.70224875710227 58.4 L 95.31679421164773 58.4" stroke-miterlimit="10"/></g><g transform="translate(10,-22) scale(1,1)"><path fill="none" stroke="#000000" d="M 88.509521484375 66.4 L 79.05497602982955 79" stroke-miterlimit="10"/></g><g transform="translate(10,-22) scale(1,1)"><path fill="none" stroke="#000000" d="M 88.509521484375 66.4 L 97.96406693892045 79" stroke-miterlimit="10"/></g><g transform="translate(10,-22) scale(1,1)"><g><path fill="none" stroke="none"/><text fill="#000000" stroke="none" font-family="Arial" font-size="13px" font-style="normal" font-weight="bold" text-decoration="none" x="49.509521484375" y="98">Ator: Cliente</text></g></g><g transform="translate(10,-22) scale(1,1)"><path fill="none" stroke="#000000" d="M 89.5 105 L 89.5 526" stroke-miterlimit="10" stroke-dasharray="3"/></g><g transform="translate(10,-22) scale(1,1)"><path fill="none" stroke="#000000" d="M 89 201 L 363 201" stroke-miterlimit="10"/></g><g transform="translate(10,-22) scale(1,1)"><path fill="none" stroke="#000000" d="M 352.83732514237585 205.209517756016 L 363 201 L 352.83732514237585 196.790482243984" stroke-miterlimit="10"/></g><g transform="translate(10,-22) scale(1,1)"><g><path fill="none" stroke="none"/><text fill="#000000" stroke="none" font-family="Arial" font-size="13px" font-style="normal" font-weight="normal" text-decoration="none" x="161.5" y="195">1 : recebeInformacoes</text></g></g><g transform="translate(10,-22) scale(1,1)"><rect fill="#ffffff" stroke="none" x="363" y="201" width="13" height="142"/></g><g transform="translate(10,-22) scale(1,1)"><path fill="none" stroke="#000000" d="M 363 201 L 376 201 L 376 343 L 363 343 L 363 201 Z Z" stroke-miterlimit="10"/></g><g transform="translate(10,-22) scale(1,1)"><path fill="none" stroke="#000000" d="M 376 224 L 406 224 L 406 244 L 383 244" stroke-miterlimit="10"/></g><g transform="translate(10,-22) scale(1,1)"><path fill="#000000" stroke="none" d="M 393.16267485762415 239.790482243984 L 383 244 L 393.16267485762415 248.209517756016"/></g><g transform="translate(10,-22) scale(1,1)"><path fill="none" stroke="#000000" d="M 393.16267485762415 239.790482243984 L 383 244 L 393.16267485762415 248.209517756016 L 393.16267485762415 239.790482243984" stroke-miterlimit="10"/></g><g transform="translate(10,-22) scale(1,1)"><g><path fill="none" stroke="none"/><text fill="#000000" stroke="none" font-family="Arial" font-size="13px" font-style="normal" font-weight="normal" text-decoration="none" x="368.5" y="219">2 : GerenciaAgendamento</text></g></g><g transform="translate(10,-22) scale(1,1)"><g><path fill="none" stroke="none"/><text fill="#000000" stroke="none" font-family="Arial" font-size="13px" font-style="normal" font-weight="normal" text-decoration="none" x="407.60546875" y="238">«NEW»</text></g></g><g transform="translate(10,-22) scale(1,1)"><rect fill="#ffffff" stroke="none" x="370" y="244" width="13" height="28"/></g><g transform="translate(10,-22) scale(1,1)"><path fill="none" stroke="#000000" d="M 370 244 L 383 244 L 383 272 L 370 272 L 370 244 Z Z" stroke-miterlimit="10"/></g><g transform="translate(10,-22) scale(1,1)"><path fill="none" stroke="#000000" d="M 376 272 L 587 272" stroke-miterlimit="10"/></g><g transform="translate(10,-22) scale(1,1)"><path fill="#000000" stroke="none" d="M 576.8373251423759 276.209517756016 L 587 272 L 576.8373251423758 267.790482243984"/></g><g transform="translate(10,-22) scale(1,1)"><path fill="none" stroke="#000000" d="M 576.8373251423759 276.209517756016 L 587 272 L 576.8373251423758 267.790482243984 L 576.8373251423759 276.209517756016" stroke-miterlimit="10"/></g><g transform="translate(10,-22) scale(1,1)"><g><path fill="none" stroke="none"/><text fill="#000000" stroke="none" font-family="Arial" font-size="13px" font-style="normal" font-weight="normal" text-decoration="none" x="423.5" y="267">3 : ValidaInfomacoes</text></g></g><g transform="translate(10,-22) scale(1,1)"><rect fill="#ffffff" stroke="none" x="587" y="272" width="13" height="71"/></g><g transform="translate(10,-22) scale(1,1)"><path fill="none" stroke="#000000" d="M 587 272 L 600 272 L 600 343 L 587 343 L 587 272 Z Z" stroke-miterlimit="10"/></g><g transform="translate(10,-22) scale(1,1)"><path fill="none" stroke="#000000" d="M 363 328 L 89 328" stroke-miterlimit="10" stroke-dasharray="3"/></g><g transform="translate(10,-22) scale(1,1)"><path fill="none" stroke="#000000" d="M 99.16267485762415 323.790482243984 L 89 328 L 99.16267485762415 332.209517756016" stroke-miterlimit="10"/></g><g transform="translate(10,-22) scale(1,1)"><g><path fill="none" stroke="none"/><text fill="#000000" stroke="none" font-family="Arial" font-size="13px" font-style="normal" font-weight="normal" text-decoration="none" x="117.68017578125" y="343">4 : Disponibiliza dados Agendamento</text></g></g><g transform="translate(10,-22) scale(1,1)"><path fill="none" stroke="#000000" d="M 587 328 L 376 328" stroke-miterlimit="10" stroke-dasharray="3"/></g><g transform="translate(10,-22) scale(1,1)"><path fill="none" stroke="#000000" d="M 386.16267485762415 323.790482243984 L 376 328 L 386.16267485762415 332.209517756016" stroke-miterlimit="10"/></g><g transform="translate(10,-22) scale(1,1)"><g><path fill="none" stroke="none"/><text fill="#000000" stroke="none" font-family="Arial" font-size="13px" font-style="normal" font-weight="normal" text-decoration="none" x="428.54541015625" y="343">5 : Envia dados</text></g></g><g transform="translate(10,-22) scale(1,1)"><path fill="none" stroke="#000000" d="M 89 376 L 363 376" stroke-miterlimit="10"/></g><g transform="translate(10,-22) scale(1,1)"><path fill="#000000" stroke="none" d="M 352.83732514237585 380.209517756016 L 363 376 L 352.83732514237585 371.790482243984"/></g><g transform="translate(10,-22) scale(1,1)"><path fill="none" stroke="#000000" d="M 352.83732514237585 380.209517756016 L 363 376 L 352.83732514237585 371.790482243984 L 352.83732514237585 380.209517756016" stroke-miterlimit="10"/></g><g transform="translate(10,-22) scale(1,1)"><g><path fill="none" stroke="none"/><text fill="#000000" stroke="none" font-family="Arial" font-size="13px" font-style="normal" font-weight="normal" text-decoration="none" x="164.614990234375" y="371">6 : Informa Operação</text></g></g><g transform="translate(10,-22) scale(1,1)"><rect fill="#ffffff" stroke="none" x="363" y="376" width="13" height="127"/></g><g transform="translate(10,-22) scale(1,1)"><path fill="none" stroke="#000000" d="M 363 376 L 376 376 L 376 503 L 363 503 L 363 376 Z Z" stroke-miterlimit="10"/></g><g transform="translate(10,-22) scale(1,1)"><path fill="none" stroke="#000000" d="M 376 384 L 587 384" stroke-miterlimit="10"/></g><g transform="translate(10,-22) scale(1,1)"><path fill="#000000" stroke="none" d="M 576.8373251423759 388.209517756016 L 587 384 L 576.8373251423758 379.790482243984"/></g><g transform="translate(10,-22) scale(1,1)"><path fill="none" stroke="#000000" d="M 576.8373251423759 388.209517756016 L 587 384 L 576.8373251423758 379.790482243984 L 576.8373251423759 388.209517756016" stroke-miterlimit="10"/></g><g transform="translate(10,-22) scale(1,1)"><g><path fill="none" stroke="none"/><text fill="#000000" stroke="none" font-family="Arial" font-size="13px" font-style="normal" font-weight="normal" text-decoration="none" x="374.5" y="379">7 : Solicita OPeração para o servidor</text></g></g><g transform="translate(10,-22) scale(1,1)"><rect fill="#ffffff" stroke="none" x="587" y="384" width="13" height="90"/></g><g transform="translate(10,-22) scale(1,1)"><path fill="none" stroke="#000000" d="M 587 384 L 600 384 L 600 474 L 587 474 L 587 384 Z Z" stroke-miterlimit="10"/></g><g transform="translate(10,-22) scale(1,1)"><path fill="none" stroke="#000000" d="M 594 480 L 376 480" stroke-miterlimit="10" stroke-dasharray="3"/></g><g transform="translate(10,-22) scale(1,1)"><path fill="none" stroke="#000000" d="M 386.16267485762415 475.790482243984 L 376 480 L 386.16267485762415 484.209517756016" stroke-miterlimit="10"/></g><g transform="translate(10,-22) scale(1,1)"><g><path fill="none" stroke="none"/><text fill="#000000" stroke="none" font-family="Arial" font-size="13px" font-style="normal" font-weight="normal" text-decoration="none" x="392.5" y="515">8 : Efetua e confirma OPeração</text></g></g><g transform="translate(10,-22) scale(1,1)"><path fill="none" stroke="#000000" d="M 370 512 L 89 512" stroke-miterlimit="10" stroke-dasharray="3"/></g><g transform="translate(10,-22) scale(1,1)"><path fill="none" stroke="#000000" d="M 99.16267485762415 507.790482243984 L 89 512 L 99.16267485762415 516.209517756016" stroke-miterlimit="10"/></g><g transform="translate(10,-22) scale(1,1)"><g><path fill="none" stroke="none"/><text fill="#000000" stroke="none" font-family="Arial" font-size="13px" font-style="normal" font-weight="normal" text-decoration="none" x="162.430419921875" y="527">9 : Confirma Operação</text></g></g></g></svg>